<svg width="800" height="400" xmlns="http://www.w3.org/2000/svg">
      <defs>
        <linearGradient id="areaGrad" x1="0%" y1="0%" x2="0%" y2="100%">
          <stop offset="0%" style="stop-color:#e74c3c;stop-opacity:0.3"/>
          <stop offset="100%" style="stop-color:#e74c3c;stop-opacity:0.05"/>
        </linearGradient>
      </defs>
      <rect width="100%" height="100%" fill="#ffffff"/>
      
      <!-- 标题 -->
      <text x="400" y="30" fill="#333" font-size="16" font-weight="bold" text-anchor="middle" font-family="sans-serif">Code History</text>
      
      <!-- 图例 -->
      <rect x="80" y="45" width="12" height="12" fill="#e74c3c" rx="2"/>
      <text x="98" y="55" fill="#333" font-size="11" font-family="sans-serif">WyRainBow/Resume-Agent</text>
      
      <!-- Y轴标签 -->
      <text x="20" y="200" fill="#666" font-size="12" text-anchor="middle" font-family="sans-serif" transform="rotate(-90, 20, 200)">Lines of Code</text>
      
      <!-- 网格线和Y轴刻度 -->
      <text x="70" y="344.0" fill="#666" font-size="12" text-anchor="end" font-family="sans-serif">0</text><line x1="80" y1="340.0" x2="760" y2="340.0" stroke="#eee" stroke-width="1"/><text x="70" y="288.0" fill="#666" font-size="12" text-anchor="end" font-family="sans-serif">4.8k</text><line x1="80" y1="284.0" x2="760" y2="284.0" stroke="#eee" stroke-width="1"/><text x="70" y="232.0" fill="#666" font-size="12" text-anchor="end" font-family="sans-serif">9.6k</text><line x1="80" y1="228.0" x2="760" y2="228.0" stroke="#eee" stroke-width="1"/><text x="70" y="176.0" fill="#666" font-size="12" text-anchor="end" font-family="sans-serif">14.3k</text><line x1="80" y1="172.0" x2="760" y2="172.0" stroke="#eee" stroke-width="1"/><text x="70" y="120.0" fill="#666" font-size="12" text-anchor="end" font-family="sans-serif">19.1k</text><line x1="80" y1="116.0" x2="760" y2="116.0" stroke="#eee" stroke-width="1"/><text x="70" y="64.0" fill="#666" font-size="12" text-anchor="end" font-family="sans-serif">23.9k</text><line x1="80" y1="60.0" x2="760" y2="60.0" stroke="#eee" stroke-width="1"/>
      
      <!-- 坐标轴 -->
      <line x1="80" y1="60" x2="80" y2="340" stroke="#ccc" stroke-width="1"/>
      <line x1="80" y1="340" x2="760" y2="340" stroke="#ccc" stroke-width="1"/>
      
      <!-- 填充区域 -->
      <polygon points="80,340 80.0,254.53432162423462 101.93548387096774,251.7335130225881 123.87096774193549,212.3112530395805 145.80645161290323,199.38534556001522 167.74193548387098,199.38534556001522 189.67741935483872,201.5181788884657 211.61290322580643,170.39287493041925 233.54838709677418,145.05669000673836 255.48387096774192,145.05669000673836 277.4193548387097,145.05669000673836 299.35483870967744,132.21281457826737 321.2903225806452,135.59956640201568 343.22580645161287,119.40409574312253 365.16129032258067,107.66179357220287 387.09677419354836,107.66179357220287 409.03225806451616,87.34128262971322 430.96774193548384,85.45454545454547 452.9032258064516,85.45454545454547 474.8387096774194,85.45454545454547 496.77419354838713,85.45454545454547 518.7096774193549,85.45454545454547 540.6451612903226,85.45454545454547 562.5806451612904,85.45454545454547 584.516129032258,85.45454545454547 606.4516129032257,85.45454545454547 628.3870967741935,85.45454545454547 650.3225806451613,85.45454545454547 672.258064516129,85.45454545454547 694.1935483870967,85.45454545454547 716.1290322580645,85.45454545454547 738.0645161290323,85.45454545454547 760.0,85.45454545454547 760.0,340" fill="url(#areaGrad)"/>
      
      <!-- 折线 -->
      <polyline points="80.0,254.53432162423462 101.93548387096774,251.7335130225881 123.87096774193549,212.3112530395805 145.80645161290323,199.38534556001522 167.74193548387098,199.38534556001522 189.67741935483872,201.5181788884657 211.61290322580643,170.39287493041925 233.54838709677418,145.05669000673836 255.48387096774192,145.05669000673836 277.4193548387097,145.05669000673836 299.35483870967744,132.21281457826737 321.2903225806452,135.59956640201568 343.22580645161287,119.40409574312253 365.16129032258067,107.66179357220287 387.09677419354836,107.66179357220287 409.03225806451616,87.34128262971322 430.96774193548384,85.45454545454547 452.9032258064516,85.45454545454547 474.8387096774194,85.45454545454547 496.77419354838713,85.45454545454547 518.7096774193549,85.45454545454547 540.6451612903226,85.45454545454547 562.5806451612904,85.45454545454547 584.516129032258,85.45454545454547 606.4516129032257,85.45454545454547 628.3870967741935,85.45454545454547 650.3225806451613,85.45454545454547 672.258064516129,85.45454545454547 694.1935483870967,85.45454545454547 716.1290322580645,85.45454545454547 738.0645161290323,85.45454545454547 760.0,85.45454545454547" fill="none" stroke="#e74c3c" stroke-width="2.5"/>
      
      <!-- X轴标签 -->
      <text x="80.0" y="375" fill="#666" font-size="11" text-anchor="middle" font-family="sans-serif">12-07</text><text x="211.61290322580643" y="375" fill="#666" font-size="11" text-anchor="middle" font-family="sans-serif">12-13</text><text x="343.22580645161287" y="375" fill="#666" font-size="11" text-anchor="middle" font-family="sans-serif">12-19</text><text x="474.8387096774194" y="375" fill="#666" font-size="11" text-anchor="middle" font-family="sans-serif">12-25</text><text x="606.4516129032257" y="375" fill="#666" font-size="11" text-anchor="middle" font-family="sans-serif">12-31</text><text x="760.0" y="375" fill="#666" font-size="11" text-anchor="middle" font-family="sans-serif">01-07</text>
      <text x="400" y="395" fill="#666" font-size="12" text-anchor="middle" font-family="sans-serif">Date</text>
      
      <!-- 当前值标注 -->
      <circle cx="760.0" cy="85.45454545454547" r="4" fill="#e74c3c"/>
      <text x="768.0" y="77.45454545454547" fill="#e74c3c" font-size="12" font-weight="bold" font-family="sans-serif">21721</text>
    </svg>