<svg width="800" height="400" xmlns="http://www.w3.org/2000/svg">
      <defs>
        <linearGradient id="areaGrad" x1="0%" y1="0%" x2="0%" y2="100%">
          <stop offset="0%" style="stop-color:#e74c3c;stop-opacity:0.3"/>
          <stop offset="100%" style="stop-color:#e74c3c;stop-opacity:0.05"/>
        </linearGradient>
      </defs>
      <rect width="100%" height="100%" fill="#ffffff"/>
      
      <!-- 标题 -->
      <text x="400" y="30" fill="#333" font-size="16" font-weight="bold" text-anchor="middle" font-family="sans-serif">Code History</text>
      
      <!-- 图例 -->
      <rect x="80" y="45" width="12" height="12" fill="#e74c3c" rx="2"/>
      <text x="98" y="55" fill="#333" font-size="11" font-family="sans-serif">WyRainBow/Resume-Agent</text>
      
      <!-- Y轴标签 -->
      <text x="20" y="200" fill="#666" font-size="12" text-anchor="middle" font-family="sans-serif" transform="rotate(-90, 20, 200)">Lines of Code</text>
      
      <!-- 网格线和Y轴刻度 -->
      <text x="70" y="344.0" fill="#666" font-size="12" text-anchor="end" font-family="sans-serif">0</text><line x1="80" y1="340.0" x2="760" y2="340.0" stroke="#eee" stroke-width="1"/><text x="70" y="288.0" fill="#666" font-size="12" text-anchor="end" font-family="sans-serif">33.4k</text><line x1="80" y1="284.0" x2="760" y2="284.0" stroke="#eee" stroke-width="1"/><text x="70" y="232.0" fill="#666" font-size="12" text-anchor="end" font-family="sans-serif">66.7k</text><line x1="80" y1="228.0" x2="760" y2="228.0" stroke="#eee" stroke-width="1"/><text x="70" y="176.0" fill="#666" font-size="12" text-anchor="end" font-family="sans-serif">100.1k</text><line x1="80" y1="172.0" x2="760" y2="172.0" stroke="#eee" stroke-width="1"/><text x="70" y="120.0" fill="#666" font-size="12" text-anchor="end" font-family="sans-serif">133.4k</text><line x1="80" y1="116.0" x2="760" y2="116.0" stroke="#eee" stroke-width="1"/><text x="70" y="64.0" fill="#666" font-size="12" text-anchor="end" font-family="sans-serif">166.8k</text><line x1="80" y1="60.0" x2="760" y2="60.0" stroke="#eee" stroke-width="1"/>
      
      <!-- 坐标轴 -->
      <line x1="80" y1="60" x2="80" y2="340" stroke="#ccc" stroke-width="1"/>
      <line x1="80" y1="340" x2="760" y2="340" stroke="#ccc" stroke-width="1"/>
      
      <!-- 填充区域 -->
      <polygon points="80,340 80.0,327.75841262932994 90.625,327.3572417282481 101.25,321.7106354050705 111.875,319.8592065184876 122.5,319.8592065184876 133.125,320.1647006774705 143.75,315.7065002035229 154.375,312.0774981611002 165.0,312.0774981611002 175.625,312.0774981611002 186.25,310.2378190498628 196.875,310.7229169176982 207.5,308.40317555663063 218.125,306.72127914288984 228.75,306.72127914288984 239.375,303.8106919358774 250.0,303.540447102931 260.625,303.540447102931 271.25,303.540447102931 281.875,303.540447102931 292.5,291.5254625424955 303.125,292.19184265851857 313.75,288.57459039144135 324.375,288.57459039144135 335.0,285.3887227334773 345.625,221.20641417838198 356.25,221.22319957173266 366.875,221.07045249224126 377.5,221.0452744022152 388.125,221.0452744022152 398.75,221.0452744022152 409.375,221.0452744022152 420.0,221.0452744022152 430.625,218.55432202897038 441.25,217.66133910271282 451.875,217.66133910271282 462.5,217.66133910271282 473.125,217.66133910271282 483.75,217.66133910271282 494.375,217.66133910271282 505.0,217.66133910271282 515.625,217.66133910271282 526.25,217.66133910271282 536.875,215.48763066379638 547.5,205.82092263312467 558.125,203.9728508252119 568.75,204.13063352270854 579.375,204.00810015124839 590.0,203.1335811576766 600.625,202.35306036686876 611.25,200.7282342905204 621.875,182.40865598755965 632.5,104.13165263587629 643.125,104.13165263587629 653.75,95.33610652010623 664.375,92.7729769554534 675.0,108.26421647882015 685.625,108.26421647882015 696.25,108.26421647882015 706.875,108.26421647882015 717.5,108.25918086081492 728.125,86.91151759738676 738.75,86.91151759738676 749.375,85.45454545454547 760.0,85.45454545454547 760.0,340" fill="url(#areaGrad)"/>
      
      <!-- 折线 -->
      <polyline points="80.0,327.75841262932994 90.625,327.3572417282481 101.25,321.7106354050705 111.875,319.8592065184876 122.5,319.8592065184876 133.125,320.1647006774705 143.75,315.7065002035229 154.375,312.0774981611002 165.0,312.0774981611002 175.625,312.0774981611002 186.25,310.2378190498628 196.875,310.7229169176982 207.5,308.40317555663063 218.125,306.72127914288984 228.75,306.72127914288984 239.375,303.8106919358774 250.0,303.540447102931 260.625,303.540447102931 271.25,303.540447102931 281.875,303.540447102931 292.5,291.5254625424955 303.125,292.19184265851857 313.75,288.57459039144135 324.375,288.57459039144135 335.0,285.3887227334773 345.625,221.20641417838198 356.25,221.22319957173266 366.875,221.07045249224126 377.5,221.0452744022152 388.125,221.0452744022152 398.75,221.0452744022152 409.375,221.0452744022152 420.0,221.0452744022152 430.625,218.55432202897038 441.25,217.66133910271282 451.875,217.66133910271282 462.5,217.66133910271282 473.125,217.66133910271282 483.75,217.66133910271282 494.375,217.66133910271282 505.0,217.66133910271282 515.625,217.66133910271282 526.25,217.66133910271282 536.875,215.48763066379638 547.5,205.82092263312467 558.125,203.9728508252119 568.75,204.13063352270854 579.375,204.00810015124839 590.0,203.1335811576766 600.625,202.35306036686876 611.25,200.7282342905204 621.875,182.40865598755965 632.5,104.13165263587629 643.125,104.13165263587629 653.75,95.33610652010623 664.375,92.7729769554534 675.0,108.26421647882015 685.625,108.26421647882015 696.25,108.26421647882015 706.875,108.26421647882015 717.5,108.25918086081492 728.125,86.91151759738676 738.75,86.91151759738676 749.375,85.45454545454547 760.0,85.45454545454547" fill="none" stroke="#e74c3c" stroke-width="2.5"/>
      
      <!-- X轴标签 -->
      <text x="80.0" y="375" fill="#666" font-size="11" text-anchor="middle" font-family="sans-serif">12-07</text><text x="207.5" y="375" fill="#666" font-size="11" text-anchor="middle" font-family="sans-serif">12-19</text><text x="345.625" y="375" fill="#666" font-size="11" text-anchor="middle" font-family="sans-serif">01-19</text><text x="483.75" y="375" fill="#666" font-size="11" text-anchor="middle" font-family="sans-serif">02-01</text><text x="621.875" y="375" fill="#666" font-size="11" text-anchor="middle" font-family="sans-serif">02-14</text><text x="760.0" y="375" fill="#666" font-size="11" text-anchor="middle" font-family="sans-serif">07-20</text>
      <text x="400" y="395" fill="#666" font-size="12" text-anchor="middle" font-family="sans-serif">Date</text>
      
      <!-- 当前值标注 -->
      <circle cx="760.0" cy="85.45454545454547" r="4" fill="#e74c3c"/>
      <text x="768.0" y="77.45454545454547" fill="#e74c3c" font-size="12" font-weight="bold" font-family="sans-serif">151647</text>
    </svg>