<svg width="800" height="400" xmlns="http://www.w3.org/2000/svg">
      <defs>
        <linearGradient id="areaGrad" x1="0%" y1="0%" x2="0%" y2="100%">
          <stop offset="0%" style="stop-color:#e74c3c;stop-opacity:0.3"/>
          <stop offset="100%" style="stop-color:#e74c3c;stop-opacity:0.05"/>
        </linearGradient>
      </defs>
      <rect width="100%" height="100%" fill="#ffffff"/>
      
      <!-- 标题 -->
      <text x="400" y="30" fill="#333" font-size="16" font-weight="bold" text-anchor="middle" font-family="sans-serif">Code History</text>
      
      <!-- 图例 -->
      <rect x="80" y="45" width="12" height="12" fill="#e74c3c" rx="2"/>
      <text x="98" y="55" fill="#333" font-size="11" font-family="sans-serif">WyRainBow/Resume-Agent</text>
      
      <!-- Y轴标签 -->
      <text x="20" y="200" fill="#666" font-size="12" text-anchor="middle" font-family="sans-serif" transform="rotate(-90, 20, 200)">Lines of Code</text>
      
      <!-- 网格线和Y轴刻度 -->
      <text x="70" y="344.0" fill="#666" font-size="12" text-anchor="end" font-family="sans-serif">0</text><line x1="80" y1="340.0" x2="760" y2="340.0" stroke="#eee" stroke-width="1"/><text x="70" y="288.0" fill="#666" font-size="12" text-anchor="end" font-family="sans-serif">23.3k</text><line x1="80" y1="284.0" x2="760" y2="284.0" stroke="#eee" stroke-width="1"/><text x="70" y="232.0" fill="#666" font-size="12" text-anchor="end" font-family="sans-serif">46.6k</text><line x1="80" y1="228.0" x2="760" y2="228.0" stroke="#eee" stroke-width="1"/><text x="70" y="176.0" fill="#666" font-size="12" text-anchor="end" font-family="sans-serif">70.0k</text><line x1="80" y1="172.0" x2="760" y2="172.0" stroke="#eee" stroke-width="1"/><text x="70" y="120.0" fill="#666" font-size="12" text-anchor="end" font-family="sans-serif">93.3k</text><line x1="80" y1="116.0" x2="760" y2="116.0" stroke="#eee" stroke-width="1"/><text x="70" y="64.0" fill="#666" font-size="12" text-anchor="end" font-family="sans-serif">116.6k</text><line x1="80" y1="60.0" x2="760" y2="60.0" stroke="#eee" stroke-width="1"/>
      
      <!-- 坐标轴 -->
      <line x1="80" y1="60" x2="80" y2="340" stroke="#ccc" stroke-width="1"/>
      <line x1="80" y1="340" x2="760" y2="340" stroke="#ccc" stroke-width="1"/>
      
      <!-- 填充区域 -->
      <polygon points="80,340 80.0,322.48695767021064 87.55555555555556,321.9130351257407 95.11111111111111,313.83489521110863 102.66666666666667,311.18620664813625 110.22222222222223,311.18620664813625 117.77777777777777,311.6232522677745 125.33333333333334,305.24526784052637 132.88888888888889,300.05355009515347 140.44444444444446,300.05355009515347 148.0,300.05355009515347 155.55555555555554,297.42167097909027 163.11111111111111,298.11566100148286 170.66666666666669,294.79699591170237 178.22222222222223,292.3908436541336 185.77777777777777,292.3908436541336 193.33333333333331,288.22690351977815 200.8888888888889,287.8402862408674 208.44444444444443,287.8402862408674 216.0,287.8402862408674 223.55555555555554,287.8402862408674 231.11111111111111,270.65142610146904 238.66666666666666,271.6047618761744 246.22222222222223,266.4298535777107 253.77777777777777,266.4298535777107 261.33333333333337,261.8720921157691 268.8888888888889,170.05168904924568 276.44444444444446,170.07570254483022 284.0,169.85717973501107 291.55555555555554,169.82115949163432 299.1111111111111,169.82115949163432 306.66666666666663,169.82115949163432 314.22222222222223,169.82115949163432 321.7777777777778,169.82115949163432 329.3333333333333,166.25755674689177 336.88888888888886,164.98003878179537 344.44444444444446,164.98003878179537 352.0,164.98003878179537 359.55555555555554,164.98003878179537 367.1111111111111,164.98003878179537 374.6666666666667,164.98003878179537 382.22222222222223,164.98003878179537 389.77777777777777,164.98003878179537 397.3333333333333,164.98003878179537 404.8888888888889,161.87029110360024 412.44444444444446,148.04091899647602 420.0,145.39703313262055 427.55555555555554,145.622759991115 435.11111111111114,145.44746147334806 442.6666666666667,144.19635835339463 450.2222222222222,143.0797308087145 457.77777777777777,140.75522443613312 465.3333333333333,114.5468953551896 472.88888888888886,85.54579673776664 480.44444444444446,85.5337899899744 488.0,96.26061846757878 495.5555555555556,96.26061846757878 503.11111111111114,96.26061846757878 510.66666666666663,96.26061846757878 518.2222222222222,96.26061846757878 525.7777777777778,96.26061846757878 533.3333333333333,96.26061846757878 540.8888888888889,95.15359632113248 548.4444444444445,85.45454545454547 556.0,181.93836936358235 563.5555555555557,181.93836936358235 571.1111111111111,181.93836936358235 578.6666666666666,181.93836936358235 586.2222222222222,181.93836936358235 593.7777777777777,181.93836936358235 601.3333333333334,181.93836936358235 608.8888888888889,181.93836936358235 616.4444444444445,181.93836936358235 624.0,181.93836936358235 631.5555555555555,181.93836936358235 639.1111111111111,181.93836936358235 646.6666666666667,181.93836936358235 654.2222222222222,181.93836936358235 661.7777777777777,181.93836936358235 669.3333333333334,181.93836936358235 676.8888888888889,181.93836936358235 684.4444444444445,181.93836936358235 692.0,181.93836936358235 699.5555555555555,181.93836936358235 707.1111111111112,181.93836936358235 714.6666666666666,181.93836936358235 722.2222222222222,181.93836936358235 729.7777777777778,181.93836936358235 737.3333333333334,181.93836936358235 744.8888888888889,181.93836936358235 752.4444444444445,181.93836936358235 760.0,181.93836936358235 760.0,340" fill="url(#areaGrad)"/>
      
      <!-- 折线 -->
      <polyline points="80.0,322.48695767021064 87.55555555555556,321.9130351257407 95.11111111111111,313.83489521110863 102.66666666666667,311.18620664813625 110.22222222222223,311.18620664813625 117.77777777777777,311.6232522677745 125.33333333333334,305.24526784052637 132.88888888888889,300.05355009515347 140.44444444444446,300.05355009515347 148.0,300.05355009515347 155.55555555555554,297.42167097909027 163.11111111111111,298.11566100148286 170.66666666666669,294.79699591170237 178.22222222222223,292.3908436541336 185.77777777777777,292.3908436541336 193.33333333333331,288.22690351977815 200.8888888888889,287.8402862408674 208.44444444444443,287.8402862408674 216.0,287.8402862408674 223.55555555555554,287.8402862408674 231.11111111111111,270.65142610146904 238.66666666666666,271.6047618761744 246.22222222222223,266.4298535777107 253.77777777777777,266.4298535777107 261.33333333333337,261.8720921157691 268.8888888888889,170.05168904924568 276.44444444444446,170.07570254483022 284.0,169.85717973501107 291.55555555555554,169.82115949163432 299.1111111111111,169.82115949163432 306.66666666666663,169.82115949163432 314.22222222222223,169.82115949163432 321.7777777777778,169.82115949163432 329.3333333333333,166.25755674689177 336.88888888888886,164.98003878179537 344.44444444444446,164.98003878179537 352.0,164.98003878179537 359.55555555555554,164.98003878179537 367.1111111111111,164.98003878179537 374.6666666666667,164.98003878179537 382.22222222222223,164.98003878179537 389.77777777777777,164.98003878179537 397.3333333333333,164.98003878179537 404.8888888888889,161.87029110360024 412.44444444444446,148.04091899647602 420.0,145.39703313262055 427.55555555555554,145.622759991115 435.11111111111114,145.44746147334806 442.6666666666667,144.19635835339463 450.2222222222222,143.0797308087145 457.77777777777777,140.75522443613312 465.3333333333333,114.5468953551896 472.88888888888886,85.54579673776664 480.44444444444446,85.5337899899744 488.0,96.26061846757878 495.5555555555556,96.26061846757878 503.11111111111114,96.26061846757878 510.66666666666663,96.26061846757878 518.2222222222222,96.26061846757878 525.7777777777778,96.26061846757878 533.3333333333333,96.26061846757878 540.8888888888889,95.15359632113248 548.4444444444445,85.45454545454547 556.0,181.93836936358235 563.5555555555557,181.93836936358235 571.1111111111111,181.93836936358235 578.6666666666666,181.93836936358235 586.2222222222222,181.93836936358235 593.7777777777777,181.93836936358235 601.3333333333334,181.93836936358235 608.8888888888889,181.93836936358235 616.4444444444445,181.93836936358235 624.0,181.93836936358235 631.5555555555555,181.93836936358235 639.1111111111111,181.93836936358235 646.6666666666667,181.93836936358235 654.2222222222222,181.93836936358235 661.7777777777777,181.93836936358235 669.3333333333334,181.93836936358235 676.8888888888889,181.93836936358235 684.4444444444445,181.93836936358235 692.0,181.93836936358235 699.5555555555555,181.93836936358235 707.1111111111112,181.93836936358235 714.6666666666666,181.93836936358235 722.2222222222222,181.93836936358235 729.7777777777778,181.93836936358235 737.3333333333334,181.93836936358235 744.8888888888889,181.93836936358235 752.4444444444445,181.93836936358235 760.0,181.93836936358235" fill="none" stroke="#e74c3c" stroke-width="2.5"/>
      
      <!-- X轴标签 -->
      <text x="80.0" y="375" fill="#666" font-size="11" text-anchor="middle" font-family="sans-serif">12-07</text><text x="216.0" y="375" fill="#666" font-size="11" text-anchor="middle" font-family="sans-serif">12-25</text><text x="352.0" y="375" fill="#666" font-size="11" text-anchor="middle" font-family="sans-serif">01-30</text><text x="488.0" y="375" fill="#666" font-size="11" text-anchor="middle" font-family="sans-serif">02-17</text><text x="624.0" y="375" fill="#666" font-size="11" text-anchor="middle" font-family="sans-serif">03-07</text><text x="760.0" y="375" fill="#666" font-size="11" text-anchor="middle" font-family="sans-serif">03-25</text>
      <text x="400" y="395" fill="#666" font-size="12" text-anchor="middle" font-family="sans-serif">Date</text>
      
      <!-- 当前值标注 -->
      <circle cx="760.0" cy="181.93836936358235" r="4" fill="#e74c3c"/>
      <text x="768.0" y="173.93836936358235" fill="#e74c3c" font-size="12" font-weight="bold" font-family="sans-serif">65822</text>
    </svg>