<svg width="800" height="400" xmlns="http://www.w3.org/2000/svg">
      <defs>
        <linearGradient id="areaGrad" x1="0%" y1="0%" x2="0%" y2="100%">
          <stop offset="0%" style="stop-color:#e74c3c;stop-opacity:0.3"/>
          <stop offset="100%" style="stop-color:#e74c3c;stop-opacity:0.05"/>
        </linearGradient>
      </defs>
      <rect width="100%" height="100%" fill="#ffffff"/>
      
      <!-- 标题 -->
      <text x="400" y="30" fill="#333" font-size="16" font-weight="bold" text-anchor="middle" font-family="sans-serif">Code History</text>
      
      <!-- 图例 -->
      <rect x="80" y="45" width="12" height="12" fill="#e74c3c" rx="2"/>
      <text x="98" y="55" fill="#333" font-size="11" font-family="sans-serif">WyRainBow/Resume-Agent</text>
      
      <!-- Y轴标签 -->
      <text x="20" y="200" fill="#666" font-size="12" text-anchor="middle" font-family="sans-serif" transform="rotate(-90, 20, 200)">Lines of Code</text>
      
      <!-- 网格线和Y轴刻度 -->
      <text x="70" y="344.0" fill="#666" font-size="12" text-anchor="end" font-family="sans-serif">0</text><line x1="80" y1="340.0" x2="760" y2="340.0" stroke="#eee" stroke-width="1"/><text x="70" y="288.0" fill="#666" font-size="12" text-anchor="end" font-family="sans-serif">23.1k</text><line x1="80" y1="284.0" x2="760" y2="284.0" stroke="#eee" stroke-width="1"/><text x="70" y="232.0" fill="#666" font-size="12" text-anchor="end" font-family="sans-serif">46.2k</text><line x1="80" y1="228.0" x2="760" y2="228.0" stroke="#eee" stroke-width="1"/><text x="70" y="176.0" fill="#666" font-size="12" text-anchor="end" font-family="sans-serif">69.4k</text><line x1="80" y1="172.0" x2="760" y2="172.0" stroke="#eee" stroke-width="1"/><text x="70" y="120.0" fill="#666" font-size="12" text-anchor="end" font-family="sans-serif">92.5k</text><line x1="80" y1="116.0" x2="760" y2="116.0" stroke="#eee" stroke-width="1"/><text x="70" y="64.0" fill="#666" font-size="12" text-anchor="end" font-family="sans-serif">115.6k</text><line x1="80" y1="60.0" x2="760" y2="60.0" stroke="#eee" stroke-width="1"/>
      
      <!-- 坐标轴 -->
      <line x1="80" y1="60" x2="80" y2="340" stroke="#ccc" stroke-width="1"/>
      <line x1="80" y1="340" x2="760" y2="340" stroke="#ccc" stroke-width="1"/>
      
      <!-- 填充区域 -->
      <polygon points="80,340 80.0,322.3383344908619 88.0952380952381,321.7595413938258 96.19047619047619,313.61284692341025 104.28571428571428,310.9416804546622 112.38095238095238,310.9416804546622 120.47619047619048,311.38243503064786 128.57142857142856,304.95032429538514 136.66666666666666,299.71454740922627 144.76190476190476,299.71454740922627 152.85714285714283,299.71454740922627 160.95238095238096,297.0603330395546 169.04761904761904,297.7602125585647 177.14285714285714,294.4133838552014 185.23809523809524,291.986811958841 193.33333333333331,291.986811958841 201.42857142857144,287.78753484478017 209.52380952380952,287.39763656602366 217.61904761904762,287.39763656602366 225.7142857142857,287.39763656602366 233.80952380952382,287.39763656602366 241.9047619047619,270.0629043962155 250.0,271.02433058668964 258.0952380952381,265.80550579960715 266.1904761904762,265.80550579960715 274.2857142857143,261.2090652214714 282.3809523809524,168.6094348810196 290.4761904761905,168.63365216541445 298.57142857142856,168.41327487742166 306.66666666666663,168.37694895082942 314.76190476190476,168.37694895082942 322.8571428571429,168.37694895082942 330.95238095238096,168.37694895082942 339.04761904761904,168.37694895082942 347.1428571428571,164.78310394663896 355.23809523809524,163.49474441683483 363.33333333333337,163.49474441683483 371.4285714285714,163.49474441683483 379.5238095238095,163.49474441683483 387.61904761904765,163.49474441683483 395.7142857142857,163.49474441683483 403.8095238095238,163.49474441683483 411.90476190476187,163.49474441683483 420.0,163.49474441683483 428.0952380952381,160.35860608770636 436.1904761904762,146.41187200473277 444.2857142857143,143.7455489928637 452.3809523809524,143.97319146617497 460.4761904761905,143.79640529009282 468.57142857142856,142.53468477312296 476.6666666666667,141.40858104876412 484.76190476190476,139.06434791934606 492.85714285714283,112.63360373084566 500.95238095238096,99.214806447679 509.04761904761904,99.214806447679 517.1428571428571,88.60037069743186 525.2380952380952,88.60037069743186 533.3333333333333,88.60037069743186 541.4285714285714,88.60037069743186 549.5238095238095,88.60037069743186 557.6190476190476,88.60037069743186 565.7142857142858,88.60037069743186 573.8095238095239,88.60037069743186 581.9047619047619,88.60037069743186 590.0,88.60037069743186 598.0952380952381,88.60037069743186 606.1904761904763,88.60037069743186 614.2857142857142,88.60037069743186 622.3809523809524,88.60037069743186 630.4761904761905,88.60037069743186 638.5714285714286,88.60037069743186 646.6666666666667,88.60037069743186 654.7619047619047,88.60037069743186 662.8571428571428,88.60037069743186 670.952380952381,88.60037069743186 679.047619047619,88.60037069743186 687.1428571428572,88.60037069743186 695.2380952380953,88.60037069743186 703.3333333333333,88.60037069743186 711.4285714285714,88.60037069743186 719.5238095238095,85.45454545454547 727.6190476190476,85.45454545454547 735.7142857142858,85.45454545454547 743.8095238095237,85.45454545454547 751.9047619047619,85.45454545454547 760.0,85.45454545454547 760.0,340" fill="url(#areaGrad)"/>
      
      <!-- 折线 -->
      <polyline points="80.0,322.3383344908619 88.0952380952381,321.7595413938258 96.19047619047619,313.61284692341025 104.28571428571428,310.9416804546622 112.38095238095238,310.9416804546622 120.47619047619048,311.38243503064786 128.57142857142856,304.95032429538514 136.66666666666666,299.71454740922627 144.76190476190476,299.71454740922627 152.85714285714283,299.71454740922627 160.95238095238096,297.0603330395546 169.04761904761904,297.7602125585647 177.14285714285714,294.4133838552014 185.23809523809524,291.986811958841 193.33333333333331,291.986811958841 201.42857142857144,287.78753484478017 209.52380952380952,287.39763656602366 217.61904761904762,287.39763656602366 225.7142857142857,287.39763656602366 233.80952380952382,287.39763656602366 241.9047619047619,270.0629043962155 250.0,271.02433058668964 258.0952380952381,265.80550579960715 266.1904761904762,265.80550579960715 274.2857142857143,261.2090652214714 282.3809523809524,168.6094348810196 290.4761904761905,168.63365216541445 298.57142857142856,168.41327487742166 306.66666666666663,168.37694895082942 314.76190476190476,168.37694895082942 322.8571428571429,168.37694895082942 330.95238095238096,168.37694895082942 339.04761904761904,168.37694895082942 347.1428571428571,164.78310394663896 355.23809523809524,163.49474441683483 363.33333333333337,163.49474441683483 371.4285714285714,163.49474441683483 379.5238095238095,163.49474441683483 387.61904761904765,163.49474441683483 395.7142857142857,163.49474441683483 403.8095238095238,163.49474441683483 411.90476190476187,163.49474441683483 420.0,163.49474441683483 428.0952380952381,160.35860608770636 436.1904761904762,146.41187200473277 444.2857142857143,143.7455489928637 452.3809523809524,143.97319146617497 460.4761904761905,143.79640529009282 468.57142857142856,142.53468477312296 476.6666666666667,141.40858104876412 484.76190476190476,139.06434791934606 492.85714285714283,112.63360373084566 500.95238095238096,99.214806447679 509.04761904761904,99.214806447679 517.1428571428571,88.60037069743186 525.2380952380952,88.60037069743186 533.3333333333333,88.60037069743186 541.4285714285714,88.60037069743186 549.5238095238095,88.60037069743186 557.6190476190476,88.60037069743186 565.7142857142858,88.60037069743186 573.8095238095239,88.60037069743186 581.9047619047619,88.60037069743186 590.0,88.60037069743186 598.0952380952381,88.60037069743186 606.1904761904763,88.60037069743186 614.2857142857142,88.60037069743186 622.3809523809524,88.60037069743186 630.4761904761905,88.60037069743186 638.5714285714286,88.60037069743186 646.6666666666667,88.60037069743186 654.7619047619047,88.60037069743186 662.8571428571428,88.60037069743186 670.952380952381,88.60037069743186 679.047619047619,88.60037069743186 687.1428571428572,88.60037069743186 695.2380952380953,88.60037069743186 703.3333333333333,88.60037069743186 711.4285714285714,88.60037069743186 719.5238095238095,85.45454545454547 727.6190476190476,85.45454545454547 735.7142857142858,85.45454545454547 743.8095238095237,85.45454545454547 751.9047619047619,85.45454545454547 760.0,85.45454545454547" fill="none" stroke="#e74c3c" stroke-width="2.5"/>
      
      <!-- X轴标签 -->
      <text x="80.0" y="375" fill="#666" font-size="11" text-anchor="middle" font-family="sans-serif">12-07</text><text x="209.52380952380952" y="375" fill="#666" font-size="11" text-anchor="middle" font-family="sans-serif">12-23</text><text x="347.1428571428571" y="375" fill="#666" font-size="11" text-anchor="middle" font-family="sans-serif">01-27</text><text x="484.76190476190476" y="375" fill="#666" font-size="11" text-anchor="middle" font-family="sans-serif">02-13</text><text x="622.3809523809524" y="375" fill="#666" font-size="11" text-anchor="middle" font-family="sans-serif">04-16</text><text x="760.0" y="375" fill="#666" font-size="11" text-anchor="middle" font-family="sans-serif">05-03</text>
      <text x="400" y="395" fill="#666" font-size="12" text-anchor="middle" font-family="sans-serif">Date</text>
      
      <!-- 当前值标注 -->
      <circle cx="760.0" cy="85.45454545454547" r="4" fill="#e74c3c"/>
      <text x="768.0" y="77.45454545454547" fill="#e74c3c" font-size="12" font-weight="bold" font-family="sans-serif">105109</text>
    </svg>