<svg width="800" height="400" xmlns="http://www.w3.org/2000/svg">
      <defs>
        <linearGradient id="areaGrad" x1="0%" y1="0%" x2="0%" y2="100%">
          <stop offset="0%" style="stop-color:#e74c3c;stop-opacity:0.3"/>
          <stop offset="100%" style="stop-color:#e74c3c;stop-opacity:0.05"/>
        </linearGradient>
      </defs>
      <rect width="100%" height="100%" fill="#ffffff"/>
      
      <!-- 标题 -->
      <text x="400" y="30" fill="#333" font-size="16" font-weight="bold" text-anchor="middle" font-family="sans-serif">Code History</text>
      
      <!-- 图例 -->
      <rect x="80" y="45" width="12" height="12" fill="#e74c3c" rx="2"/>
      <text x="98" y="55" fill="#333" font-size="11" font-family="sans-serif">WyRainBow/Resume-Agent</text>
      
      <!-- Y轴标签 -->
      <text x="20" y="200" fill="#666" font-size="12" text-anchor="middle" font-family="sans-serif" transform="rotate(-90, 20, 200)">Lines of Code</text>
      
      <!-- 网格线和Y轴刻度 -->
      <text x="70" y="344.0" fill="#666" font-size="12" text-anchor="end" font-family="sans-serif">0</text><line x1="80" y1="340.0" x2="760" y2="340.0" stroke="#eee" stroke-width="1"/><text x="70" y="288.0" fill="#666" font-size="12" text-anchor="end" font-family="sans-serif">22.8k</text><line x1="80" y1="284.0" x2="760" y2="284.0" stroke="#eee" stroke-width="1"/><text x="70" y="232.0" fill="#666" font-size="12" text-anchor="end" font-family="sans-serif">45.7k</text><line x1="80" y1="228.0" x2="760" y2="228.0" stroke="#eee" stroke-width="1"/><text x="70" y="176.0" fill="#666" font-size="12" text-anchor="end" font-family="sans-serif">68.5k</text><line x1="80" y1="172.0" x2="760" y2="172.0" stroke="#eee" stroke-width="1"/><text x="70" y="120.0" fill="#666" font-size="12" text-anchor="end" font-family="sans-serif">91.4k</text><line x1="80" y1="116.0" x2="760" y2="116.0" stroke="#eee" stroke-width="1"/><text x="70" y="64.0" fill="#666" font-size="12" text-anchor="end" font-family="sans-serif">114.2k</text><line x1="80" y1="60.0" x2="760" y2="60.0" stroke="#eee" stroke-width="1"/>
      
      <!-- 坐标轴 -->
      <line x1="80" y1="60" x2="80" y2="340" stroke="#ccc" stroke-width="1"/>
      <line x1="80" y1="340" x2="760" y2="340" stroke="#ccc" stroke-width="1"/>
      
      <!-- 填充区域 -->
      <polygon points="80,340 80.0,322.11732973701953 90.14925373134328,321.5312940599522 100.29850746268656,313.28265800281986 110.44776119402985,310.5780665726721 120.59701492537313,310.5780665726721 130.7462686567164,311.0243364188071 140.8955223880597,304.51173910378225 151.04477611940297,299.2104456568381 161.19402985074626,299.2104456568381 171.34328358208955,299.2104456568381 181.49253731343282,296.5230184515417 191.64179104477614,297.23165573469015 201.7910447761194,293.84294734261016 211.9402985074627,291.3860111567462 222.08955223880596,291.3860111567462 232.23880597014926,287.1341874578557 242.38805970149252,286.73941028627473 252.53731343283582,286.73941028627473 262.6865671641791,286.73941028627473 272.8358208955224,286.73941028627473 282.98507462686564,269.1877643597131 293.13432835820896,270.16122111199655 303.2835820895523,264.8770918899038 313.43283582089555,264.8770918899038 323.5820895522388,260.2231349230675 333.7313432835821,166.46478268865326 343.8805970149254,166.48930300986945 354.02985074626866,166.26616808680197 364.17910447761193,166.22938760497763 374.3283582089552,166.22938760497763 384.4776119402985,166.22938760497763 394.6268656716418,166.22938760497763 404.77611940298505,166.22938760497763 414.92537313432837,162.59057193649238 425.07462686567163,161.28609084779012 435.2238805970149,161.28609084779012 445.3731343283582,161.28609084779012 455.52238805970154,161.28609084779012 465.67164179104475,161.28609084779012 475.82089552238807,161.28609084779012 485.9701492537313,161.28609084779012 496.1194029850746,161.28609084779012 506.2686567164179,161.28609084779012 516.4179104477612,158.1107092502912 526.5671641791046,143.98945626187705 536.7164179104477,141.28976889597257 546.8656716417911,141.52025991540492 557.0149253731344,141.3412615705266 567.1641791044776,140.06375283516215 577.3134328358209,138.92355789860852 587.4626865671642,136.54999080487954 597.6119402985074,109.78851222951025 607.7611940298508,96.20180224360942 617.910447761194,96.20180224360942 628.0597014925373,85.4545454545455 638.2089552238806,85.4545454545455 648.3582089552239,85.4545454545455 658.5074626865671,85.4545454545455 668.6567164179104,85.4545454545455 678.8059701492538,85.4545454545455 688.955223880597,85.4545454545455 699.1044776119403,85.4545454545455 709.2537313432836,85.4545454545455 719.4029850746269,85.4545454545455 729.5522388059701,85.4545454545455 739.7014925373135,85.4545454545455 749.8507462686567,85.4545454545455 760.0,85.4545454545455 760.0,340" fill="url(#areaGrad)"/>
      
      <!-- 折线 -->
      <polyline points="80.0,322.11732973701953 90.14925373134328,321.5312940599522 100.29850746268656,313.28265800281986 110.44776119402985,310.5780665726721 120.59701492537313,310.5780665726721 130.7462686567164,311.0243364188071 140.8955223880597,304.51173910378225 151.04477611940297,299.2104456568381 161.19402985074626,299.2104456568381 171.34328358208955,299.2104456568381 181.49253731343282,296.5230184515417 191.64179104477614,297.23165573469015 201.7910447761194,293.84294734261016 211.9402985074627,291.3860111567462 222.08955223880596,291.3860111567462 232.23880597014926,287.1341874578557 242.38805970149252,286.73941028627473 252.53731343283582,286.73941028627473 262.6865671641791,286.73941028627473 272.8358208955224,286.73941028627473 282.98507462686564,269.1877643597131 293.13432835820896,270.16122111199655 303.2835820895523,264.8770918899038 313.43283582089555,264.8770918899038 323.5820895522388,260.2231349230675 333.7313432835821,166.46478268865326 343.8805970149254,166.48930300986945 354.02985074626866,166.26616808680197 364.17910447761193,166.22938760497763 374.3283582089552,166.22938760497763 384.4776119402985,166.22938760497763 394.6268656716418,166.22938760497763 404.77611940298505,166.22938760497763 414.92537313432837,162.59057193649238 425.07462686567163,161.28609084779012 435.2238805970149,161.28609084779012 445.3731343283582,161.28609084779012 455.52238805970154,161.28609084779012 465.67164179104475,161.28609084779012 475.82089552238807,161.28609084779012 485.9701492537313,161.28609084779012 496.1194029850746,161.28609084779012 506.2686567164179,161.28609084779012 516.4179104477612,158.1107092502912 526.5671641791046,143.98945626187705 536.7164179104477,141.28976889597257 546.8656716417911,141.52025991540492 557.0149253731344,141.3412615705266 567.1641791044776,140.06375283516215 577.3134328358209,138.92355789860852 587.4626865671642,136.54999080487954 597.6119402985074,109.78851222951025 607.7611940298508,96.20180224360942 617.910447761194,96.20180224360942 628.0597014925373,85.4545454545455 638.2089552238806,85.4545454545455 648.3582089552239,85.4545454545455 658.5074626865671,85.4545454545455 668.6567164179104,85.4545454545455 678.8059701492538,85.4545454545455 688.955223880597,85.4545454545455 699.1044776119403,85.4545454545455 709.2537313432836,85.4545454545455 719.4029850746269,85.4545454545455 729.5522388059701,85.4545454545455 739.7014925373135,85.4545454545455 749.8507462686567,85.4545454545455 760.0,85.4545454545455" fill="none" stroke="#e74c3c" stroke-width="2.5"/>
      
      <!-- X轴标签 -->
      <text x="80.0" y="375" fill="#666" font-size="11" text-anchor="middle" font-family="sans-serif">12-07</text><text x="211.9402985074627" y="375" fill="#666" font-size="11" text-anchor="middle" font-family="sans-serif">12-20</text><text x="343.8805970149254" y="375" fill="#666" font-size="11" text-anchor="middle" font-family="sans-serif">01-20</text><text x="485.9701492537313" y="375" fill="#666" font-size="11" text-anchor="middle" font-family="sans-serif">02-03</text><text x="617.910447761194" y="375" fill="#666" font-size="11" text-anchor="middle" font-family="sans-serif">04-02</text><text x="760.0" y="375" fill="#666" font-size="11" text-anchor="middle" font-family="sans-serif">04-16</text>
      <text x="400" y="395" fill="#666" font-size="12" text-anchor="middle" font-family="sans-serif">Date</text>
      
      <!-- 当前值标注 -->
      <circle cx="760.0" cy="85.4545454545455" r="4" fill="#e74c3c"/>
      <text x="768.0" y="77.4545454545455" fill="#e74c3c" font-size="12" font-weight="bold" font-family="sans-serif">103810</text>
    </svg>