<svg width="800" height="400" xmlns="http://www.w3.org/2000/svg">
      <defs>
        <linearGradient id="areaGrad" x1="0%" y1="0%" x2="0%" y2="100%">
          <stop offset="0%" style="stop-color:#e74c3c;stop-opacity:0.3"/>
          <stop offset="100%" style="stop-color:#e74c3c;stop-opacity:0.05"/>
        </linearGradient>
      </defs>
      <rect width="100%" height="100%" fill="#ffffff"/>
      
      <!-- 标题 -->
      <text x="400" y="30" fill="#333" font-size="16" font-weight="bold" text-anchor="middle" font-family="sans-serif">Code History</text>
      
      <!-- 图例 -->
      <rect x="80" y="45" width="12" height="12" fill="#e74c3c" rx="2"/>
      <text x="98" y="55" fill="#333" font-size="11" font-family="sans-serif">WyRainBow/Resume-Agent</text>
      
      <!-- Y轴标签 -->
      <text x="20" y="200" fill="#666" font-size="12" text-anchor="middle" font-family="sans-serif" transform="rotate(-90, 20, 200)">Lines of Code</text>
      
      <!-- 网格线和Y轴刻度 -->
      <text x="70" y="344.0" fill="#666" font-size="12" text-anchor="end" font-family="sans-serif">0</text><line x1="80" y1="340.0" x2="760" y2="340.0" stroke="#eee" stroke-width="1"/><text x="70" y="288.0" fill="#666" font-size="12" text-anchor="end" font-family="sans-serif">32.4k</text><line x1="80" y1="284.0" x2="760" y2="284.0" stroke="#eee" stroke-width="1"/><text x="70" y="232.0" fill="#666" font-size="12" text-anchor="end" font-family="sans-serif">64.8k</text><line x1="80" y1="228.0" x2="760" y2="228.0" stroke="#eee" stroke-width="1"/><text x="70" y="176.0" fill="#666" font-size="12" text-anchor="end" font-family="sans-serif">97.2k</text><line x1="80" y1="172.0" x2="760" y2="172.0" stroke="#eee" stroke-width="1"/><text x="70" y="120.0" fill="#666" font-size="12" text-anchor="end" font-family="sans-serif">129.6k</text><line x1="80" y1="116.0" x2="760" y2="116.0" stroke="#eee" stroke-width="1"/><text x="70" y="64.0" fill="#666" font-size="12" text-anchor="end" font-family="sans-serif">162.0k</text><line x1="80" y1="60.0" x2="760" y2="60.0" stroke="#eee" stroke-width="1"/>
      
      <!-- 坐标轴 -->
      <line x1="80" y1="60" x2="80" y2="340" stroke="#ccc" stroke-width="1"/>
      <line x1="80" y1="340" x2="760" y2="340" stroke="#ccc" stroke-width="1"/>
      
      <!-- 填充区域 -->
      <polygon points="80,340 80.0,327.39603631006133 91.33333333333333,326.9829899201127 102.66666666666667,321.16923236451777 114.0,319.26299735149126 125.33333333333334,319.26299735149126 136.66666666666666,319.5775347697785 148.0,314.9873623358724 159.33333333333331,311.25093432303163 170.66666666666669,311.25093432303163 182.0,311.25093432303163 193.33333333333331,309.3567969030162 204.66666666666666,309.85625467161515 216.0,307.4678441657197 227.33333333333334,305.7361601375669 238.66666666666666,305.7361601375669 250.0,302.7394135259731 261.33333333333337,302.461168886719 272.66666666666663,302.461168886719 284.0,302.461168886719 295.3333333333333,302.461168886719 306.66666666666663,290.09051591913624 318.0,290.77662226561995 329.3333333333333,287.05229184579025 340.6666666666667,287.05229184579025 352.0,283.77211591222334 363.33333333333337,217.6898782031618 374.6666666666667,217.70716047889186 386.0,217.54989176974823 397.3333333333333,217.52396835615315 408.6666666666667,217.52396835615315 420.0,217.52396835615315 431.33333333333337,217.52396835615315 442.6666666666667,217.52396835615315 454.00000000000006,214.95927863781105 465.3333333333333,214.0398615689714 476.6666666666667,214.0398615689714 488.0,214.0398615689714 499.33333333333337,214.0398615689714 510.66666666666663,214.0398615689714 522.0,214.0398615689714 533.3333333333333,214.0398615689714 544.6666666666667,214.0398615689714 556.0,214.0398615689714 567.3333333333333,211.8018068619276 578.6666666666666,201.84894426898134 590.0,199.94616571110086 601.3333333333334,200.1086191029635 612.6666666666666,199.98245849013398 624.0,199.08205192459744 635.3333333333334,198.27842610314926 646.6666666666667,196.60550181247868 658.0,177.74362608068233 669.3333333333334,97.1494614410826 680.6666666666666,97.1494614410826 692.0,88.09354895852687 703.3333333333333,85.45454545454547 714.6666666666666,101.40435772582535 726.0,101.40435772582535 737.3333333333334,101.40435772582535 748.6666666666666,101.40435772582535 760.0,101.39917304310632 760.0,340" fill="url(#areaGrad)"/>
      
      <!-- 折线 -->
      <polyline points="80.0,327.39603631006133 91.33333333333333,326.9829899201127 102.66666666666667,321.16923236451777 114.0,319.26299735149126 125.33333333333334,319.26299735149126 136.66666666666666,319.5775347697785 148.0,314.9873623358724 159.33333333333331,311.25093432303163 170.66666666666669,311.25093432303163 182.0,311.25093432303163 193.33333333333331,309.3567969030162 204.66666666666666,309.85625467161515 216.0,307.4678441657197 227.33333333333334,305.7361601375669 238.66666666666666,305.7361601375669 250.0,302.7394135259731 261.33333333333337,302.461168886719 272.66666666666663,302.461168886719 284.0,302.461168886719 295.3333333333333,302.461168886719 306.66666666666663,290.09051591913624 318.0,290.77662226561995 329.3333333333333,287.05229184579025 340.6666666666667,287.05229184579025 352.0,283.77211591222334 363.33333333333337,217.6898782031618 374.6666666666667,217.70716047889186 386.0,217.54989176974823 397.3333333333333,217.52396835615315 408.6666666666667,217.52396835615315 420.0,217.52396835615315 431.33333333333337,217.52396835615315 442.6666666666667,217.52396835615315 454.00000000000006,214.95927863781105 465.3333333333333,214.0398615689714 476.6666666666667,214.0398615689714 488.0,214.0398615689714 499.33333333333337,214.0398615689714 510.66666666666663,214.0398615689714 522.0,214.0398615689714 533.3333333333333,214.0398615689714 544.6666666666667,214.0398615689714 556.0,214.0398615689714 567.3333333333333,211.8018068619276 578.6666666666666,201.84894426898134 590.0,199.94616571110086 601.3333333333334,200.1086191029635 612.6666666666666,199.98245849013398 624.0,199.08205192459744 635.3333333333334,198.27842610314926 646.6666666666667,196.60550181247868 658.0,177.74362608068233 669.3333333333334,97.1494614410826 680.6666666666666,97.1494614410826 692.0,88.09354895852687 703.3333333333333,85.45454545454547 714.6666666666666,101.40435772582535 726.0,101.40435772582535 737.3333333333334,101.40435772582535 748.6666666666666,101.40435772582535 760.0,101.39917304310632" fill="none" stroke="#e74c3c" stroke-width="2.5"/>
      
      <!-- X轴标签 -->
      <text x="80.0" y="375" fill="#666" font-size="11" text-anchor="middle" font-family="sans-serif">12-07</text><text x="216.0" y="375" fill="#666" font-size="11" text-anchor="middle" font-family="sans-serif">12-19</text><text x="352.0" y="375" fill="#666" font-size="11" text-anchor="middle" font-family="sans-serif">01-18</text><text x="488.0" y="375" fill="#666" font-size="11" text-anchor="middle" font-family="sans-serif">01-30</text><text x="624.0" y="375" fill="#666" font-size="11" text-anchor="middle" font-family="sans-serif">02-11</text><text x="760.0" y="375" fill="#666" font-size="11" text-anchor="middle" font-family="sans-serif">07-16</text>
      <text x="400" y="395" fill="#666" font-size="12" text-anchor="middle" font-family="sans-serif">Date</text>
      
      <!-- 当前值标注 -->
      <circle cx="760.0" cy="101.39917304310632" r="4" fill="#e74c3c"/>
      <text x="768.0" y="93.39917304310632" fill="#e74c3c" font-size="12" font-weight="bold" font-family="sans-serif">138061</text>
    </svg>