<svg width="800" height="400" xmlns="http://www.w3.org/2000/svg">
      <defs>
        <linearGradient id="areaGrad" x1="0%" y1="0%" x2="0%" y2="100%">
          <stop offset="0%" style="stop-color:#e74c3c;stop-opacity:0.3"/>
          <stop offset="100%" style="stop-color:#e74c3c;stop-opacity:0.05"/>
        </linearGradient>
      </defs>
      <rect width="100%" height="100%" fill="#ffffff"/>
      
      <!-- 标题 -->
      <text x="400" y="30" fill="#333" font-size="16" font-weight="bold" text-anchor="middle" font-family="sans-serif">Code History</text>
      
      <!-- 图例 -->
      <rect x="80" y="45" width="12" height="12" fill="#e74c3c" rx="2"/>
      <text x="98" y="55" fill="#333" font-size="11" font-family="sans-serif">WyRainBow/Resume-Agent</text>
      
      <!-- Y轴标签 -->
      <text x="20" y="200" fill="#666" font-size="12" text-anchor="middle" font-family="sans-serif" transform="rotate(-90, 20, 200)">Lines of Code</text>
      
      <!-- 网格线和Y轴刻度 -->
      <text x="70" y="344.0" fill="#666" font-size="12" text-anchor="end" font-family="sans-serif">0</text><line x1="80" y1="340.0" x2="760" y2="340.0" stroke="#eee" stroke-width="1"/><text x="70" y="288.0" fill="#666" font-size="12" text-anchor="end" font-family="sans-serif">22.8k</text><line x1="80" y1="284.0" x2="760" y2="284.0" stroke="#eee" stroke-width="1"/><text x="70" y="232.0" fill="#666" font-size="12" text-anchor="end" font-family="sans-serif">45.7k</text><line x1="80" y1="228.0" x2="760" y2="228.0" stroke="#eee" stroke-width="1"/><text x="70" y="176.0" fill="#666" font-size="12" text-anchor="end" font-family="sans-serif">68.5k</text><line x1="80" y1="172.0" x2="760" y2="172.0" stroke="#eee" stroke-width="1"/><text x="70" y="120.0" fill="#666" font-size="12" text-anchor="end" font-family="sans-serif">91.4k</text><line x1="80" y1="116.0" x2="760" y2="116.0" stroke="#eee" stroke-width="1"/><text x="70" y="64.0" fill="#666" font-size="12" text-anchor="end" font-family="sans-serif">114.2k</text><line x1="80" y1="60.0" x2="760" y2="60.0" stroke="#eee" stroke-width="1"/>
      
      <!-- 坐标轴 -->
      <line x1="80" y1="60" x2="80" y2="340" stroke="#ccc" stroke-width="1"/>
      <line x1="80" y1="340" x2="760" y2="340" stroke="#ccc" stroke-width="1"/>
      
      <!-- 填充区域 -->
      <polygon points="80,340 80.0,322.11732973701953 88.71794871794872,321.5312940599522 97.43589743589743,313.28265800281986 106.15384615384616,310.5780665726721 114.87179487179486,310.5780665726721 123.58974358974359,311.0243364188071 132.30769230769232,304.51173910378225 141.02564102564102,299.2104456568381 149.74358974358972,299.2104456568381 158.46153846153845,299.2104456568381 167.17948717948718,296.5230184515417 175.8974358974359,297.23165573469015 184.61538461538464,293.84294734261016 193.33333333333331,291.3860111567462 202.05128205128204,291.3860111567462 210.76923076923077,287.1341874578557 219.48717948717947,286.73941028627473 228.2051282051282,286.73941028627473 236.92307692307693,286.73941028627473 245.64102564102564,286.73941028627473 254.35897435897434,269.1877643597131 263.0769230769231,270.16122111199655 271.7948717948718,264.8770918899038 280.51282051282055,264.8770918899038 289.2307692307693,260.2231349230675 297.94871794871796,166.46478268865326 306.66666666666663,166.48930300986945 315.38461538461536,166.26616808680197 324.1025641025641,166.22938760497763 332.8205128205128,166.22938760497763 341.53846153846155,166.22938760497763 350.2564102564102,166.22938760497763 358.97435897435895,166.22938760497763 367.6923076923077,162.59057193649238 376.4102564102564,161.28609084779012 385.12820512820514,161.28609084779012 393.84615384615387,161.28609084779012 402.56410256410254,161.28609084779012 411.28205128205127,161.28609084779012 420.0,161.28609084779012 428.7179487179487,161.28609084779012 437.43589743589746,161.28609084779012 446.15384615384613,161.28609084779012 454.8717948717949,158.1107092502912 463.5897435897436,143.98945626187705 472.30769230769226,141.28976889597257 481.02564102564105,141.52025991540492 489.7435897435897,141.3412615705266 498.4615384615385,140.06375283516215 507.1794871794872,138.92355789860852 515.8974358974359,136.54999080487954 524.6153846153846,109.78851222951025 533.3333333333333,96.20180224360942 542.051282051282,96.20180224360942 550.7692307692307,85.4545454545455 559.4871794871794,85.4545454545455 568.2051282051282,85.4545454545455 576.9230769230769,85.4545454545455 585.6410256410256,85.4545454545455 594.3589743589744,85.4545454545455 603.0769230769231,85.4545454545455 611.7948717948718,85.4545454545455 620.5128205128204,85.4545454545455 629.2307692307693,85.4545454545455 637.9487179487179,85.4545454545455 646.6666666666667,85.4545454545455 655.3846153846154,85.4545454545455 664.1025641025641,85.4545454545455 672.8205128205128,85.4545454545455 681.5384615384615,85.4545454545455 690.2564102564103,85.4545454545455 698.974358974359,85.4545454545455 707.6923076923077,85.4545454545455 716.4102564102565,85.4545454545455 725.1282051282051,85.4545454545455 733.8461538461538,85.4545454545455 742.5641025641025,85.4545454545455 751.2820512820513,85.4545454545455 760.0,85.4545454545455 760.0,340" fill="url(#areaGrad)"/>
      
      <!-- 折线 -->
      <polyline points="80.0,322.11732973701953 88.71794871794872,321.5312940599522 97.43589743589743,313.28265800281986 106.15384615384616,310.5780665726721 114.87179487179486,310.5780665726721 123.58974358974359,311.0243364188071 132.30769230769232,304.51173910378225 141.02564102564102,299.2104456568381 149.74358974358972,299.2104456568381 158.46153846153845,299.2104456568381 167.17948717948718,296.5230184515417 175.8974358974359,297.23165573469015 184.61538461538464,293.84294734261016 193.33333333333331,291.3860111567462 202.05128205128204,291.3860111567462 210.76923076923077,287.1341874578557 219.48717948717947,286.73941028627473 228.2051282051282,286.73941028627473 236.92307692307693,286.73941028627473 245.64102564102564,286.73941028627473 254.35897435897434,269.1877643597131 263.0769230769231,270.16122111199655 271.7948717948718,264.8770918899038 280.51282051282055,264.8770918899038 289.2307692307693,260.2231349230675 297.94871794871796,166.46478268865326 306.66666666666663,166.48930300986945 315.38461538461536,166.26616808680197 324.1025641025641,166.22938760497763 332.8205128205128,166.22938760497763 341.53846153846155,166.22938760497763 350.2564102564102,166.22938760497763 358.97435897435895,166.22938760497763 367.6923076923077,162.59057193649238 376.4102564102564,161.28609084779012 385.12820512820514,161.28609084779012 393.84615384615387,161.28609084779012 402.56410256410254,161.28609084779012 411.28205128205127,161.28609084779012 420.0,161.28609084779012 428.7179487179487,161.28609084779012 437.43589743589746,161.28609084779012 446.15384615384613,161.28609084779012 454.8717948717949,158.1107092502912 463.5897435897436,143.98945626187705 472.30769230769226,141.28976889597257 481.02564102564105,141.52025991540492 489.7435897435897,141.3412615705266 498.4615384615385,140.06375283516215 507.1794871794872,138.92355789860852 515.8974358974359,136.54999080487954 524.6153846153846,109.78851222951025 533.3333333333333,96.20180224360942 542.051282051282,96.20180224360942 550.7692307692307,85.4545454545455 559.4871794871794,85.4545454545455 568.2051282051282,85.4545454545455 576.9230769230769,85.4545454545455 585.6410256410256,85.4545454545455 594.3589743589744,85.4545454545455 603.0769230769231,85.4545454545455 611.7948717948718,85.4545454545455 620.5128205128204,85.4545454545455 629.2307692307693,85.4545454545455 637.9487179487179,85.4545454545455 646.6666666666667,85.4545454545455 655.3846153846154,85.4545454545455 664.1025641025641,85.4545454545455 672.8205128205128,85.4545454545455 681.5384615384615,85.4545454545455 690.2564102564103,85.4545454545455 698.974358974359,85.4545454545455 707.6923076923077,85.4545454545455 716.4102564102565,85.4545454545455 725.1282051282051,85.4545454545455 733.8461538461538,85.4545454545455 742.5641025641025,85.4545454545455 751.2820512820513,85.4545454545455 760.0,85.4545454545455" fill="none" stroke="#e74c3c" stroke-width="2.5"/>
      
      <!-- X轴标签 -->
      <text x="80.0" y="375" fill="#666" font-size="11" text-anchor="middle" font-family="sans-serif">12-07</text><text x="210.76923076923077" y="375" fill="#666" font-size="11" text-anchor="middle" font-family="sans-serif">12-22</text><text x="350.2564102564102" y="375" fill="#666" font-size="11" text-anchor="middle" font-family="sans-serif">01-25</text><text x="481.02564102564105" y="375" fill="#666" font-size="11" text-anchor="middle" font-family="sans-serif">02-09</text><text x="620.5128205128204" y="375" fill="#666" font-size="11" text-anchor="middle" font-family="sans-serif">04-11</text><text x="760.0" y="375" fill="#666" font-size="11" text-anchor="middle" font-family="sans-serif">04-27</text>
      <text x="400" y="395" fill="#666" font-size="12" text-anchor="middle" font-family="sans-serif">Date</text>
      
      <!-- 当前值标注 -->
      <circle cx="760.0" cy="85.4545454545455" r="4" fill="#e74c3c"/>
      <text x="768.0" y="77.4545454545455" fill="#e74c3c" font-size="12" font-weight="bold" font-family="sans-serif">103810</text>
    </svg>