<svg width="800" height="400" xmlns="http://www.w3.org/2000/svg">
      <defs>
        <linearGradient id="areaGrad" x1="0%" y1="0%" x2="0%" y2="100%">
          <stop offset="0%" style="stop-color:#e74c3c;stop-opacity:0.3"/>
          <stop offset="100%" style="stop-color:#e74c3c;stop-opacity:0.05"/>
        </linearGradient>
      </defs>
      <rect width="100%" height="100%" fill="#ffffff"/>
      
      <!-- 标题 -->
      <text x="400" y="30" fill="#333" font-size="16" font-weight="bold" text-anchor="middle" font-family="sans-serif">Code History</text>
      
      <!-- 图例 -->
      <rect x="80" y="45" width="12" height="12" fill="#e74c3c" rx="2"/>
      <text x="98" y="55" fill="#333" font-size="11" font-family="sans-serif">WyRainBow/Resume-Agent</text>
      
      <!-- Y轴标签 -->
      <text x="20" y="200" fill="#666" font-size="12" text-anchor="middle" font-family="sans-serif" transform="rotate(-90, 20, 200)">Lines of Code</text>
      
      <!-- 网格线和Y轴刻度 -->
      <text x="70" y="344.0" fill="#666" font-size="12" text-anchor="end" font-family="sans-serif">0</text><line x1="80" y1="340.0" x2="760" y2="340.0" stroke="#eee" stroke-width="1"/><text x="70" y="288.0" fill="#666" font-size="12" text-anchor="end" font-family="sans-serif">22.8k</text><line x1="80" y1="284.0" x2="760" y2="284.0" stroke="#eee" stroke-width="1"/><text x="70" y="232.0" fill="#666" font-size="12" text-anchor="end" font-family="sans-serif">45.7k</text><line x1="80" y1="228.0" x2="760" y2="228.0" stroke="#eee" stroke-width="1"/><text x="70" y="176.0" fill="#666" font-size="12" text-anchor="end" font-family="sans-serif">68.5k</text><line x1="80" y1="172.0" x2="760" y2="172.0" stroke="#eee" stroke-width="1"/><text x="70" y="120.0" fill="#666" font-size="12" text-anchor="end" font-family="sans-serif">91.4k</text><line x1="80" y1="116.0" x2="760" y2="116.0" stroke="#eee" stroke-width="1"/><text x="70" y="64.0" fill="#666" font-size="12" text-anchor="end" font-family="sans-serif">114.2k</text><line x1="80" y1="60.0" x2="760" y2="60.0" stroke="#eee" stroke-width="1"/>
      
      <!-- 坐标轴 -->
      <line x1="80" y1="60" x2="80" y2="340" stroke="#ccc" stroke-width="1"/>
      <line x1="80" y1="340" x2="760" y2="340" stroke="#ccc" stroke-width="1"/>
      
      <!-- 填充区域 -->
      <polygon points="80,340 80.0,322.11732973701953 90.96774193548387,321.5312940599522 101.93548387096774,313.28265800281986 112.90322580645162,310.5780665726721 123.87096774193549,310.5780665726721 134.83870967741936,311.0243364188071 145.80645161290323,304.51173910378225 156.77419354838707,299.2104456568381 167.74193548387098,299.2104456568381 178.70967741935485,299.2104456568381 189.67741935483872,296.5230184515417 200.6451612903226,297.23165573469015 211.61290322580643,293.84294734261016 222.58064516129033,291.3860111567462 233.54838709677418,291.3860111567462 244.51612903225808,287.1341874578557 255.48387096774192,286.73941028627473 266.4516129032258,286.73941028627473 277.4193548387097,286.73941028627473 288.38709677419354,286.73941028627473 299.35483870967744,269.1877643597131 310.3225806451613,270.16122111199655 321.2903225806452,264.8770918899038 332.258064516129,264.8770918899038 343.22580645161287,260.2231349230675 354.19354838709677,166.46478268865326 365.16129032258067,166.48930300986945 376.1290322580645,166.26616808680197 387.09677419354836,166.22938760497763 398.06451612903226,166.22938760497763 409.03225806451616,166.22938760497763 420.0,166.22938760497763 430.96774193548384,166.22938760497763 441.93548387096774,162.59057193649238 452.9032258064516,161.28609084779012 463.87096774193554,161.28609084779012 474.8387096774194,161.28609084779012 485.80645161290323,161.28609084779012 496.77419354838713,161.28609084779012 507.741935483871,161.28609084779012 518.7096774193549,161.28609084779012 529.6774193548387,161.28609084779012 540.6451612903226,161.28609084779012 551.6129032258065,158.1107092502912 562.5806451612904,143.98945626187705 573.5483870967741,141.28976889597257 584.516129032258,141.52025991540492 595.483870967742,141.3412615705266 606.4516129032257,140.06375283516215 617.4193548387096,138.92355789860852 628.3870967741935,136.54999080487954 639.3548387096774,109.78851222951025 650.3225806451613,96.20180224360942 661.2903225806451,96.20180224360942 672.258064516129,85.4545454545455 683.2258064516129,85.4545454545455 694.1935483870967,85.4545454545455 705.1612903225806,85.4545454545455 716.1290322580645,85.4545454545455 727.0967741935484,85.4545454545455 738.0645161290323,85.4545454545455 749.0322580645161,85.4545454545455 760.0,85.4545454545455 760.0,340" fill="url(#areaGrad)"/>
      
      <!-- 折线 -->
      <polyline points="80.0,322.11732973701953 90.96774193548387,321.5312940599522 101.93548387096774,313.28265800281986 112.90322580645162,310.5780665726721 123.87096774193549,310.5780665726721 134.83870967741936,311.0243364188071 145.80645161290323,304.51173910378225 156.77419354838707,299.2104456568381 167.74193548387098,299.2104456568381 178.70967741935485,299.2104456568381 189.67741935483872,296.5230184515417 200.6451612903226,297.23165573469015 211.61290322580643,293.84294734261016 222.58064516129033,291.3860111567462 233.54838709677418,291.3860111567462 244.51612903225808,287.1341874578557 255.48387096774192,286.73941028627473 266.4516129032258,286.73941028627473 277.4193548387097,286.73941028627473 288.38709677419354,286.73941028627473 299.35483870967744,269.1877643597131 310.3225806451613,270.16122111199655 321.2903225806452,264.8770918899038 332.258064516129,264.8770918899038 343.22580645161287,260.2231349230675 354.19354838709677,166.46478268865326 365.16129032258067,166.48930300986945 376.1290322580645,166.26616808680197 387.09677419354836,166.22938760497763 398.06451612903226,166.22938760497763 409.03225806451616,166.22938760497763 420.0,166.22938760497763 430.96774193548384,166.22938760497763 441.93548387096774,162.59057193649238 452.9032258064516,161.28609084779012 463.87096774193554,161.28609084779012 474.8387096774194,161.28609084779012 485.80645161290323,161.28609084779012 496.77419354838713,161.28609084779012 507.741935483871,161.28609084779012 518.7096774193549,161.28609084779012 529.6774193548387,161.28609084779012 540.6451612903226,161.28609084779012 551.6129032258065,158.1107092502912 562.5806451612904,143.98945626187705 573.5483870967741,141.28976889597257 584.516129032258,141.52025991540492 595.483870967742,141.3412615705266 606.4516129032257,140.06375283516215 617.4193548387096,138.92355789860852 628.3870967741935,136.54999080487954 639.3548387096774,109.78851222951025 650.3225806451613,96.20180224360942 661.2903225806451,96.20180224360942 672.258064516129,85.4545454545455 683.2258064516129,85.4545454545455 694.1935483870967,85.4545454545455 705.1612903225806,85.4545454545455 716.1290322580645,85.4545454545455 727.0967741935484,85.4545454545455 738.0645161290323,85.4545454545455 749.0322580645161,85.4545454545455 760.0,85.4545454545455" fill="none" stroke="#e74c3c" stroke-width="2.5"/>
      
      <!-- X轴标签 -->
      <text x="80.0" y="375" fill="#666" font-size="11" text-anchor="middle" font-family="sans-serif">12-07</text><text x="211.61290322580643" y="375" fill="#666" font-size="11" text-anchor="middle" font-family="sans-serif">12-19</text><text x="343.22580645161287" y="375" fill="#666" font-size="11" text-anchor="middle" font-family="sans-serif">01-18</text><text x="485.80645161290323" y="375" fill="#666" font-size="11" text-anchor="middle" font-family="sans-serif">01-31</text><text x="617.4193548387096" y="375" fill="#666" font-size="11" text-anchor="middle" font-family="sans-serif">02-12</text><text x="760.0" y="375" fill="#666" font-size="11" text-anchor="middle" font-family="sans-serif">04-11</text>
      <text x="400" y="395" fill="#666" font-size="12" text-anchor="middle" font-family="sans-serif">Date</text>
      
      <!-- 当前值标注 -->
      <circle cx="760.0" cy="85.4545454545455" r="4" fill="#e74c3c"/>
      <text x="768.0" y="77.4545454545455" fill="#e74c3c" font-size="12" font-weight="bold" font-family="sans-serif">103810</text>
    </svg>