<svg width="800" height="400" xmlns="http://www.w3.org/2000/svg">
      <defs>
        <linearGradient id="areaGrad" x1="0%" y1="0%" x2="0%" y2="100%">
          <stop offset="0%" style="stop-color:#e74c3c;stop-opacity:0.3"/>
          <stop offset="100%" style="stop-color:#e74c3c;stop-opacity:0.05"/>
        </linearGradient>
      </defs>
      <rect width="100%" height="100%" fill="#ffffff"/>
      
      <!-- 标题 -->
      <text x="400" y="30" fill="#333" font-size="16" font-weight="bold" text-anchor="middle" font-family="sans-serif">Code History</text>
      
      <!-- 图例 -->
      <rect x="80" y="45" width="12" height="12" fill="#e74c3c" rx="2"/>
      <text x="98" y="55" fill="#333" font-size="11" font-family="sans-serif">WyRainBow/Resume-Agent</text>
      
      <!-- Y轴标签 -->
      <text x="20" y="200" fill="#666" font-size="12" text-anchor="middle" font-family="sans-serif" transform="rotate(-90, 20, 200)">Lines of Code</text>
      
      <!-- 网格线和Y轴刻度 -->
      <text x="70" y="344.0" fill="#666" font-size="12" text-anchor="end" font-family="sans-serif">0</text><line x1="80" y1="340.0" x2="760" y2="340.0" stroke="#eee" stroke-width="1"/><text x="70" y="288.0" fill="#666" font-size="12" text-anchor="end" font-family="sans-serif">23.3k</text><line x1="80" y1="284.0" x2="760" y2="284.0" stroke="#eee" stroke-width="1"/><text x="70" y="232.0" fill="#666" font-size="12" text-anchor="end" font-family="sans-serif">46.6k</text><line x1="80" y1="228.0" x2="760" y2="228.0" stroke="#eee" stroke-width="1"/><text x="70" y="176.0" fill="#666" font-size="12" text-anchor="end" font-family="sans-serif">70.0k</text><line x1="80" y1="172.0" x2="760" y2="172.0" stroke="#eee" stroke-width="1"/><text x="70" y="120.0" fill="#666" font-size="12" text-anchor="end" font-family="sans-serif">93.3k</text><line x1="80" y1="116.0" x2="760" y2="116.0" stroke="#eee" stroke-width="1"/><text x="70" y="64.0" fill="#666" font-size="12" text-anchor="end" font-family="sans-serif">116.6k</text><line x1="80" y1="60.0" x2="760" y2="60.0" stroke="#eee" stroke-width="1"/>
      
      <!-- 坐标轴 -->
      <line x1="80" y1="60" x2="80" y2="340" stroke="#ccc" stroke-width="1"/>
      <line x1="80" y1="340" x2="760" y2="340" stroke="#ccc" stroke-width="1"/>
      
      <!-- 填充区域 -->
      <polygon points="80,340 80.0,322.48695767021064 87.72727272727273,321.9130351257407 95.45454545454545,313.83489521110863 103.18181818181819,311.18620664813625 110.9090909090909,311.18620664813625 118.63636363636363,311.6232522677745 126.36363636363636,305.24526784052637 134.0909090909091,300.05355009515347 141.8181818181818,300.05355009515347 149.54545454545456,300.05355009515347 157.27272727272725,297.42167097909027 165.0,298.11566100148286 172.72727272727272,294.79699591170237 180.45454545454544,292.3908436541336 188.1818181818182,292.3908436541336 195.9090909090909,288.22690351977815 203.63636363636363,287.8402862408674 211.36363636363637,287.8402862408674 219.0909090909091,287.8402862408674 226.8181818181818,287.8402862408674 234.54545454545453,270.65142610146904 242.27272727272728,271.6047618761744 250.0,266.4298535777107 257.72727272727275,266.4298535777107 265.45454545454544,261.8720921157691 273.1818181818182,170.05168904924568 280.9090909090909,170.07570254483022 288.6363636363636,169.85717973501107 296.3636363636364,169.82115949163432 304.0909090909091,169.82115949163432 311.8181818181818,169.82115949163432 319.54545454545456,169.82115949163432 327.27272727272725,169.82115949163432 335.0,166.25755674689177 342.72727272727275,164.98003878179537 350.45454545454544,164.98003878179537 358.1818181818182,164.98003878179537 365.90909090909093,164.98003878179537 373.6363636363636,164.98003878179537 381.3636363636364,164.98003878179537 389.09090909090907,164.98003878179537 396.8181818181818,164.98003878179537 404.54545454545456,164.98003878179537 412.27272727272725,161.87029110360024 420.0,148.04091899647602 427.72727272727275,145.39703313262055 435.45454545454544,145.622759991115 443.1818181818182,145.44746147334806 450.9090909090909,144.19635835339463 458.6363636363636,143.0797308087145 466.3636363636364,140.75522443613312 474.0909090909091,114.5468953551896 481.8181818181818,85.54579673776664 489.54545454545456,85.5337899899744 497.27272727272725,96.26061846757878 505.0,96.26061846757878 512.7272727272727,96.26061846757878 520.4545454545455,96.26061846757878 528.1818181818182,96.26061846757878 535.9090909090909,96.26061846757878 543.6363636363636,96.26061846757878 551.3636363636364,95.15359632113248 559.0909090909091,85.45454545454547 566.8181818181818,181.93836936358235 574.5454545454545,181.93836936358235 582.2727272727273,181.93836936358235 590.0,181.93836936358235 597.7272727272727,181.93836936358235 605.4545454545455,181.93836936358235 613.1818181818181,181.93836936358235 620.9090909090909,181.93836936358235 628.6363636363636,181.93836936358235 636.3636363636364,181.93836936358235 644.0909090909091,181.93836936358235 651.8181818181819,181.93836936358235 659.5454545454545,181.93836936358235 667.2727272727273,181.93836936358235 675.0,181.93836936358235 682.7272727272727,181.93836936358235 690.4545454545455,181.93836936358235 698.1818181818181,181.93836936358235 705.9090909090909,181.93836936358235 713.6363636363636,181.93836936358235 721.3636363636364,181.93836936358235 729.0909090909091,181.93836936358235 736.8181818181819,181.93836936358235 744.5454545454545,181.93836936358235 752.2727272727273,181.93836936358235 760.0,181.93836936358235 760.0,340" fill="url(#areaGrad)"/>
      
      <!-- 折线 -->
      <polyline points="80.0,322.48695767021064 87.72727272727273,321.9130351257407 95.45454545454545,313.83489521110863 103.18181818181819,311.18620664813625 110.9090909090909,311.18620664813625 118.63636363636363,311.6232522677745 126.36363636363636,305.24526784052637 134.0909090909091,300.05355009515347 141.8181818181818,300.05355009515347 149.54545454545456,300.05355009515347 157.27272727272725,297.42167097909027 165.0,298.11566100148286 172.72727272727272,294.79699591170237 180.45454545454544,292.3908436541336 188.1818181818182,292.3908436541336 195.9090909090909,288.22690351977815 203.63636363636363,287.8402862408674 211.36363636363637,287.8402862408674 219.0909090909091,287.8402862408674 226.8181818181818,287.8402862408674 234.54545454545453,270.65142610146904 242.27272727272728,271.6047618761744 250.0,266.4298535777107 257.72727272727275,266.4298535777107 265.45454545454544,261.8720921157691 273.1818181818182,170.05168904924568 280.9090909090909,170.07570254483022 288.6363636363636,169.85717973501107 296.3636363636364,169.82115949163432 304.0909090909091,169.82115949163432 311.8181818181818,169.82115949163432 319.54545454545456,169.82115949163432 327.27272727272725,169.82115949163432 335.0,166.25755674689177 342.72727272727275,164.98003878179537 350.45454545454544,164.98003878179537 358.1818181818182,164.98003878179537 365.90909090909093,164.98003878179537 373.6363636363636,164.98003878179537 381.3636363636364,164.98003878179537 389.09090909090907,164.98003878179537 396.8181818181818,164.98003878179537 404.54545454545456,164.98003878179537 412.27272727272725,161.87029110360024 420.0,148.04091899647602 427.72727272727275,145.39703313262055 435.45454545454544,145.622759991115 443.1818181818182,145.44746147334806 450.9090909090909,144.19635835339463 458.6363636363636,143.0797308087145 466.3636363636364,140.75522443613312 474.0909090909091,114.5468953551896 481.8181818181818,85.54579673776664 489.54545454545456,85.5337899899744 497.27272727272725,96.26061846757878 505.0,96.26061846757878 512.7272727272727,96.26061846757878 520.4545454545455,96.26061846757878 528.1818181818182,96.26061846757878 535.9090909090909,96.26061846757878 543.6363636363636,96.26061846757878 551.3636363636364,95.15359632113248 559.0909090909091,85.45454545454547 566.8181818181818,181.93836936358235 574.5454545454545,181.93836936358235 582.2727272727273,181.93836936358235 590.0,181.93836936358235 597.7272727272727,181.93836936358235 605.4545454545455,181.93836936358235 613.1818181818181,181.93836936358235 620.9090909090909,181.93836936358235 628.6363636363636,181.93836936358235 636.3636363636364,181.93836936358235 644.0909090909091,181.93836936358235 651.8181818181819,181.93836936358235 659.5454545454545,181.93836936358235 667.2727272727273,181.93836936358235 675.0,181.93836936358235 682.7272727272727,181.93836936358235 690.4545454545455,181.93836936358235 698.1818181818181,181.93836936358235 705.9090909090909,181.93836936358235 713.6363636363636,181.93836936358235 721.3636363636364,181.93836936358235 729.0909090909091,181.93836936358235 736.8181818181819,181.93836936358235 744.5454545454545,181.93836936358235 752.2727272727273,181.93836936358235 760.0,181.93836936358235" fill="none" stroke="#e74c3c" stroke-width="2.5"/>
      
      <!-- X轴标签 -->
      <text x="80.0" y="375" fill="#666" font-size="11" text-anchor="middle" font-family="sans-serif">12-07</text><text x="211.36363636363637" y="375" fill="#666" font-size="11" text-anchor="middle" font-family="sans-serif">12-24</text><text x="350.45454545454544" y="375" fill="#666" font-size="11" text-anchor="middle" font-family="sans-serif">01-29</text><text x="481.8181818181818" y="375" fill="#666" font-size="11" text-anchor="middle" font-family="sans-serif">02-15</text><text x="620.9090909090909" y="375" fill="#666" font-size="11" text-anchor="middle" font-family="sans-serif">03-05</text><text x="760.0" y="375" fill="#666" font-size="11" text-anchor="middle" font-family="sans-serif">03-23</text>
      <text x="400" y="395" fill="#666" font-size="12" text-anchor="middle" font-family="sans-serif">Date</text>
      
      <!-- 当前值标注 -->
      <circle cx="760.0" cy="181.93836936358235" r="4" fill="#e74c3c"/>
      <text x="768.0" y="173.93836936358235" fill="#e74c3c" font-size="12" font-weight="bold" font-family="sans-serif">65822</text>
    </svg>