<svg width="800" height="400" xmlns="http://www.w3.org/2000/svg">
      <defs>
        <linearGradient id="areaGrad" x1="0%" y1="0%" x2="0%" y2="100%">
          <stop offset="0%" style="stop-color:#e74c3c;stop-opacity:0.3"/>
          <stop offset="100%" style="stop-color:#e74c3c;stop-opacity:0.05"/>
        </linearGradient>
      </defs>
      <rect width="100%" height="100%" fill="#ffffff"/>
      
      <!-- 标题 -->
      <text x="400" y="30" fill="#333" font-size="16" font-weight="bold" text-anchor="middle" font-family="sans-serif">Code History</text>
      
      <!-- 图例 -->
      <rect x="80" y="45" width="12" height="12" fill="#e74c3c" rx="2"/>
      <text x="98" y="55" fill="#333" font-size="11" font-family="sans-serif">WyRainBow/Resume-Agent</text>
      
      <!-- Y轴标签 -->
      <text x="20" y="200" fill="#666" font-size="12" text-anchor="middle" font-family="sans-serif" transform="rotate(-90, 20, 200)">Lines of Code</text>
      
      <!-- 网格线和Y轴刻度 -->
      <text x="70" y="344.0" fill="#666" font-size="12" text-anchor="end" font-family="sans-serif">0</text><line x1="80" y1="340.0" x2="760" y2="340.0" stroke="#eee" stroke-width="1"/><text x="70" y="288.0" fill="#666" font-size="12" text-anchor="end" font-family="sans-serif">33.4k</text><line x1="80" y1="284.0" x2="760" y2="284.0" stroke="#eee" stroke-width="1"/><text x="70" y="232.0" fill="#666" font-size="12" text-anchor="end" font-family="sans-serif">66.7k</text><line x1="80" y1="228.0" x2="760" y2="228.0" stroke="#eee" stroke-width="1"/><text x="70" y="176.0" fill="#666" font-size="12" text-anchor="end" font-family="sans-serif">100.1k</text><line x1="80" y1="172.0" x2="760" y2="172.0" stroke="#eee" stroke-width="1"/><text x="70" y="120.0" fill="#666" font-size="12" text-anchor="end" font-family="sans-serif">133.4k</text><line x1="80" y1="116.0" x2="760" y2="116.0" stroke="#eee" stroke-width="1"/><text x="70" y="64.0" fill="#666" font-size="12" text-anchor="end" font-family="sans-serif">166.8k</text><line x1="80" y1="60.0" x2="760" y2="60.0" stroke="#eee" stroke-width="1"/>
      
      <!-- 坐标轴 -->
      <line x1="80" y1="60" x2="80" y2="340" stroke="#ccc" stroke-width="1"/>
      <line x1="80" y1="340" x2="760" y2="340" stroke="#ccc" stroke-width="1"/>
      
      <!-- 填充区域 -->
      <polygon points="80,340 80.0,327.75841262932994 90.7936507936508,327.3572417282481 101.58730158730158,321.7106354050705 112.38095238095238,319.8592065184876 123.17460317460316,319.8592065184876 133.96825396825398,320.1647006774705 144.76190476190476,315.7065002035229 155.55555555555554,312.0774981611002 166.34920634920633,312.0774981611002 177.14285714285714,312.0774981611002 187.93650793650795,310.2378190498628 198.73015873015873,310.7229169176982 209.52380952380952,308.40317555663063 220.3174603174603,306.72127914288984 231.11111111111111,306.72127914288984 241.9047619047619,303.8106919358774 252.69841269841268,303.540447102931 263.4920634920635,303.540447102931 274.2857142857143,303.540447102931 285.07936507936506,303.540447102931 295.8730158730159,291.5254625424955 306.66666666666663,292.19184265851857 317.46031746031747,288.57459039144135 328.25396825396825,288.57459039144135 339.04761904761904,285.3887227334773 349.8412698412698,221.20641417838198 360.6349206349206,221.22319957173266 371.4285714285714,221.07045249224126 382.22222222222223,221.0452744022152 393.015873015873,221.0452744022152 403.8095238095238,221.0452744022152 414.6031746031746,221.0452744022152 425.39682539682536,221.0452744022152 436.1904761904762,218.55432202897038 446.984126984127,217.66133910271282 457.77777777777777,217.66133910271282 468.57142857142856,217.66133910271282 479.3650793650794,217.66133910271282 490.1587301587301,217.66133910271282 500.95238095238096,217.66133910271282 511.74603174603175,217.66133910271282 522.5396825396825,217.66133910271282 533.3333333333333,217.66133910271282 544.1269841269841,215.48763066379638 554.9206349206349,205.82092263312467 565.7142857142858,203.9728508252119 576.5079365079365,204.13063352270854 587.3015873015872,204.00810015124839 598.0952380952381,203.1335811576766 608.8888888888889,202.35306036686876 619.6825396825396,200.7282342905204 630.4761904761905,182.40865598755965 641.2698412698412,104.13165263587629 652.063492063492,104.13165263587629 662.8571428571428,95.33610652010623 673.6507936507936,92.7729769554534 684.4444444444445,108.26421647882015 695.2380952380953,108.26421647882015 706.031746031746,108.26421647882015 716.8253968253969,108.26421647882015 727.6190476190476,108.25918086081492 738.4126984126984,86.91151759738676 749.2063492063492,86.91151759738676 760.0,85.45454545454547 760.0,340" fill="url(#areaGrad)"/>
      
      <!-- 折线 -->
      <polyline points="80.0,327.75841262932994 90.7936507936508,327.3572417282481 101.58730158730158,321.7106354050705 112.38095238095238,319.8592065184876 123.17460317460316,319.8592065184876 133.96825396825398,320.1647006774705 144.76190476190476,315.7065002035229 155.55555555555554,312.0774981611002 166.34920634920633,312.0774981611002 177.14285714285714,312.0774981611002 187.93650793650795,310.2378190498628 198.73015873015873,310.7229169176982 209.52380952380952,308.40317555663063 220.3174603174603,306.72127914288984 231.11111111111111,306.72127914288984 241.9047619047619,303.8106919358774 252.69841269841268,303.540447102931 263.4920634920635,303.540447102931 274.2857142857143,303.540447102931 285.07936507936506,303.540447102931 295.8730158730159,291.5254625424955 306.66666666666663,292.19184265851857 317.46031746031747,288.57459039144135 328.25396825396825,288.57459039144135 339.04761904761904,285.3887227334773 349.8412698412698,221.20641417838198 360.6349206349206,221.22319957173266 371.4285714285714,221.07045249224126 382.22222222222223,221.0452744022152 393.015873015873,221.0452744022152 403.8095238095238,221.0452744022152 414.6031746031746,221.0452744022152 425.39682539682536,221.0452744022152 436.1904761904762,218.55432202897038 446.984126984127,217.66133910271282 457.77777777777777,217.66133910271282 468.57142857142856,217.66133910271282 479.3650793650794,217.66133910271282 490.1587301587301,217.66133910271282 500.95238095238096,217.66133910271282 511.74603174603175,217.66133910271282 522.5396825396825,217.66133910271282 533.3333333333333,217.66133910271282 544.1269841269841,215.48763066379638 554.9206349206349,205.82092263312467 565.7142857142858,203.9728508252119 576.5079365079365,204.13063352270854 587.3015873015872,204.00810015124839 598.0952380952381,203.1335811576766 608.8888888888889,202.35306036686876 619.6825396825396,200.7282342905204 630.4761904761905,182.40865598755965 641.2698412698412,104.13165263587629 652.063492063492,104.13165263587629 662.8571428571428,95.33610652010623 673.6507936507936,92.7729769554534 684.4444444444445,108.26421647882015 695.2380952380953,108.26421647882015 706.031746031746,108.26421647882015 716.8253968253969,108.26421647882015 727.6190476190476,108.25918086081492 738.4126984126984,86.91151759738676 749.2063492063492,86.91151759738676 760.0,85.45454545454547" fill="none" stroke="#e74c3c" stroke-width="2.5"/>
      
      <!-- X轴标签 -->
      <text x="80.0" y="375" fill="#666" font-size="11" text-anchor="middle" font-family="sans-serif">12-07</text><text x="209.52380952380952" y="375" fill="#666" font-size="11" text-anchor="middle" font-family="sans-serif">12-19</text><text x="349.8412698412698" y="375" fill="#666" font-size="11" text-anchor="middle" font-family="sans-serif">01-19</text><text x="479.3650793650794" y="375" fill="#666" font-size="11" text-anchor="middle" font-family="sans-serif">01-31</text><text x="619.6825396825396" y="375" fill="#666" font-size="11" text-anchor="middle" font-family="sans-serif">02-13</text><text x="760.0" y="375" fill="#666" font-size="11" text-anchor="middle" font-family="sans-serif">07-19</text>
      <text x="400" y="395" fill="#666" font-size="12" text-anchor="middle" font-family="sans-serif">Date</text>
      
      <!-- 当前值标注 -->
      <circle cx="760.0" cy="85.45454545454547" r="4" fill="#e74c3c"/>
      <text x="768.0" y="77.45454545454547" fill="#e74c3c" font-size="12" font-weight="bold" font-family="sans-serif">151647</text>
    </svg>