<svg width="800" height="400" xmlns="http://www.w3.org/2000/svg">
      <defs>
        <linearGradient id="areaGrad" x1="0%" y1="0%" x2="0%" y2="100%">
          <stop offset="0%" style="stop-color:#e74c3c;stop-opacity:0.3"/>
          <stop offset="100%" style="stop-color:#e74c3c;stop-opacity:0.05"/>
        </linearGradient>
      </defs>
      <rect width="100%" height="100%" fill="#ffffff"/>
      
      <!-- 标题 -->
      <text x="400" y="30" fill="#333" font-size="16" font-weight="bold" text-anchor="middle" font-family="sans-serif">Code History</text>
      
      <!-- 图例 -->
      <rect x="80" y="45" width="12" height="12" fill="#e74c3c" rx="2"/>
      <text x="98" y="55" fill="#333" font-size="11" font-family="sans-serif">WyRainBow/Resume-Agent</text>
      
      <!-- Y轴标签 -->
      <text x="20" y="200" fill="#666" font-size="12" text-anchor="middle" font-family="sans-serif" transform="rotate(-90, 20, 200)">Lines of Code</text>
      
      <!-- 网格线和Y轴刻度 -->
      <text x="70" y="344.0" fill="#666" font-size="12" text-anchor="end" font-family="sans-serif">0</text><line x1="80" y1="340.0" x2="760" y2="340.0" stroke="#eee" stroke-width="1"/><text x="70" y="288.0" fill="#666" font-size="12" text-anchor="end" font-family="sans-serif">26.0k</text><line x1="80" y1="284.0" x2="760" y2="284.0" stroke="#eee" stroke-width="1"/><text x="70" y="232.0" fill="#666" font-size="12" text-anchor="end" font-family="sans-serif">51.9k</text><line x1="80" y1="228.0" x2="760" y2="228.0" stroke="#eee" stroke-width="1"/><text x="70" y="176.0" fill="#666" font-size="12" text-anchor="end" font-family="sans-serif">77.9k</text><line x1="80" y1="172.0" x2="760" y2="172.0" stroke="#eee" stroke-width="1"/><text x="70" y="120.0" fill="#666" font-size="12" text-anchor="end" font-family="sans-serif">103.8k</text><line x1="80" y1="116.0" x2="760" y2="116.0" stroke="#eee" stroke-width="1"/><text x="70" y="64.0" fill="#666" font-size="12" text-anchor="end" font-family="sans-serif">129.8k</text><line x1="80" y1="60.0" x2="760" y2="60.0" stroke="#eee" stroke-width="1"/>
      
      <!-- 坐标轴 -->
      <line x1="80" y1="60" x2="80" y2="340" stroke="#ccc" stroke-width="1"/>
      <line x1="80" y1="340" x2="760" y2="340" stroke="#ccc" stroke-width="1"/>
      
      <!-- 填充区域 -->
      <polygon points="80,340 80.0,324.26552977971403 85.71428571428571,323.7498930893742 91.42857142857143,316.49214486216425 97.14285714285714,314.1124491741106 102.85714285714286,314.1124491741106 108.57142857142857,314.50510975001794 114.28571428571428,308.7748543126013 120.0,304.11039186693307 125.71428571428572,304.11039186693307 131.42857142857142,304.11039186693307 137.14285714285714,301.745798508722 142.85714285714286,302.36930898365176 148.57142857142856,299.3876775775863 154.28571428571428,297.2258869344043 160.0,297.2258869344043 165.71428571428572,293.4848240848258 171.42857142857144,293.13747049844625 177.14285714285714,293.13747049844625 182.85714285714283,293.13747049844625 188.57142857142856,293.13747049844625 194.28571428571428,277.69425949655306 200.0,278.55077734619704 205.71428571428572,273.9014172303714 211.42857142857144,273.9014172303714 217.14285714285714,269.806528367338 222.85714285714286,187.3111303400413 228.57142857142858,187.33270509695927 234.28571428571428,187.13637480900562 240.0,187.10401267362863 245.71428571428572,187.10401267362863 251.42857142857142,187.10401267362863 257.14285714285717,187.10401267362863 262.8571428571429,187.10401267362863 268.57142857142856,183.90231874699978 274.2857142857143,182.75454167896302 280.0,182.75454167896302 285.71428571428567,182.75454167896302 291.42857142857144,182.75454167896302 297.1428571428571,182.75454167896302 302.8571428571429,182.75454167896302 308.57142857142856,182.75454167896302 314.2857142857143,182.75454167896302 320.0,182.75454167896302 325.7142857142857,179.96061065808405 331.42857142857144,167.53570814901687 337.1428571428571,165.1603274123468 342.8571428571429,165.36313012737585 348.57142857142856,165.20563440187456 354.2857142857143,164.08158956644758 360.0,163.07836336976132 365.7142857142857,160.98992690010044 371.4285714285714,137.44323719981233 377.14285714285717,125.48866439155722 382.8571428571429,125.48866439155722 388.57142857142856,116.0324484344047 394.2857142857143,116.0324484344047 400.0,116.0324484344047 405.7142857142857,116.0324484344047 411.42857142857144,116.0324484344047 417.14285714285717,116.0324484344047 422.85714285714283,116.0324484344047 428.57142857142856,116.0324484344047 434.28571428571433,116.0324484344047 440.0,116.0324484344047 445.7142857142857,116.0324484344047 451.4285714285714,116.0324484344047 457.14285714285717,116.0324484344047 462.85714285714283,116.0324484344047 468.57142857142856,116.0324484344047 474.28571428571433,116.0324484344047 480.0,116.0324484344047 485.7142857142857,116.0324484344047 491.4285714285714,116.0324484344047 497.14285714285717,116.0324484344047 502.8571428571429,116.0324484344047 508.57142857142856,116.0324484344047 514.2857142857142,116.0324484344047 520.0,116.0324484344047 525.7142857142858,116.0324484344047 531.4285714285713,113.22988751075852 537.1428571428571,113.22988751075852 542.8571428571429,113.22988751075852 548.5714285714286,113.22988751075852 554.2857142857142,113.22988751075852 560.0,113.22988751075852 565.7142857142858,113.22988751075852 571.4285714285714,113.22988751075852 577.1428571428571,113.22988751075852 582.8571428571429,113.22988751075852 588.5714285714286,113.22988751075852 594.2857142857142,113.22988751075852 600.0,113.22988751075852 605.7142857142858,113.22988751075852 611.4285714285714,113.22988751075852 617.1428571428571,113.22988751075852 622.8571428571429,113.22988751075852 628.5714285714286,113.22988751075852 634.2857142857143,113.22988751075852 640.0,113.22988751075852 645.7142857142858,113.22988751075852 651.4285714285714,113.22988751075852 657.1428571428571,113.22988751075852 662.8571428571428,113.22988751075852 668.5714285714286,88.52031841259108 674.2857142857143,85.4545454545455 680.0,85.4545454545455 685.7142857142858,85.4545454545455 691.4285714285714,85.4545454545455 697.1428571428571,85.4545454545455 702.8571428571429,85.4545454545455 708.5714285714286,85.4545454545455 714.2857142857143,85.4545454545455 720.0,85.4545454545455 725.7142857142857,85.4545454545455 731.4285714285714,85.4545454545455 737.1428571428571,85.4545454545455 742.8571428571429,85.4545454545455 748.5714285714286,85.4545454545455 754.2857142857143,85.4545454545455 760.0,85.4545454545455 760.0,340" fill="url(#areaGrad)"/>
      
      <!-- 折线 -->
      <polyline points="80.0,324.26552977971403 85.71428571428571,323.7498930893742 91.42857142857143,316.49214486216425 97.14285714285714,314.1124491741106 102.85714285714286,314.1124491741106 108.57142857142857,314.50510975001794 114.28571428571428,308.7748543126013 120.0,304.11039186693307 125.71428571428572,304.11039186693307 131.42857142857142,304.11039186693307 137.14285714285714,301.745798508722 142.85714285714286,302.36930898365176 148.57142857142856,299.3876775775863 154.28571428571428,297.2258869344043 160.0,297.2258869344043 165.71428571428572,293.4848240848258 171.42857142857144,293.13747049844625 177.14285714285714,293.13747049844625 182.85714285714283,293.13747049844625 188.57142857142856,293.13747049844625 194.28571428571428,277.69425949655306 200.0,278.55077734619704 205.71428571428572,273.9014172303714 211.42857142857144,273.9014172303714 217.14285714285714,269.806528367338 222.85714285714286,187.3111303400413 228.57142857142858,187.33270509695927 234.28571428571428,187.13637480900562 240.0,187.10401267362863 245.71428571428572,187.10401267362863 251.42857142857142,187.10401267362863 257.14285714285717,187.10401267362863 262.8571428571429,187.10401267362863 268.57142857142856,183.90231874699978 274.2857142857143,182.75454167896302 280.0,182.75454167896302 285.71428571428567,182.75454167896302 291.42857142857144,182.75454167896302 297.1428571428571,182.75454167896302 302.8571428571429,182.75454167896302 308.57142857142856,182.75454167896302 314.2857142857143,182.75454167896302 320.0,182.75454167896302 325.7142857142857,179.96061065808405 331.42857142857144,167.53570814901687 337.1428571428571,165.1603274123468 342.8571428571429,165.36313012737585 348.57142857142856,165.20563440187456 354.2857142857143,164.08158956644758 360.0,163.07836336976132 365.7142857142857,160.98992690010044 371.4285714285714,137.44323719981233 377.14285714285717,125.48866439155722 382.8571428571429,125.48866439155722 388.57142857142856,116.0324484344047 394.2857142857143,116.0324484344047 400.0,116.0324484344047 405.7142857142857,116.0324484344047 411.42857142857144,116.0324484344047 417.14285714285717,116.0324484344047 422.85714285714283,116.0324484344047 428.57142857142856,116.0324484344047 434.28571428571433,116.0324484344047 440.0,116.0324484344047 445.7142857142857,116.0324484344047 451.4285714285714,116.0324484344047 457.14285714285717,116.0324484344047 462.85714285714283,116.0324484344047 468.57142857142856,116.0324484344047 474.28571428571433,116.0324484344047 480.0,116.0324484344047 485.7142857142857,116.0324484344047 491.4285714285714,116.0324484344047 497.14285714285717,116.0324484344047 502.8571428571429,116.0324484344047 508.57142857142856,116.0324484344047 514.2857142857142,116.0324484344047 520.0,116.0324484344047 525.7142857142858,116.0324484344047 531.4285714285713,113.22988751075852 537.1428571428571,113.22988751075852 542.8571428571429,113.22988751075852 548.5714285714286,113.22988751075852 554.2857142857142,113.22988751075852 560.0,113.22988751075852 565.7142857142858,113.22988751075852 571.4285714285714,113.22988751075852 577.1428571428571,113.22988751075852 582.8571428571429,113.22988751075852 588.5714285714286,113.22988751075852 594.2857142857142,113.22988751075852 600.0,113.22988751075852 605.7142857142858,113.22988751075852 611.4285714285714,113.22988751075852 617.1428571428571,113.22988751075852 622.8571428571429,113.22988751075852 628.5714285714286,113.22988751075852 634.2857142857143,113.22988751075852 640.0,113.22988751075852 645.7142857142858,113.22988751075852 651.4285714285714,113.22988751075852 657.1428571428571,113.22988751075852 662.8571428571428,113.22988751075852 668.5714285714286,88.52031841259108 674.2857142857143,85.4545454545455 680.0,85.4545454545455 685.7142857142858,85.4545454545455 691.4285714285714,85.4545454545455 697.1428571428571,85.4545454545455 702.8571428571429,85.4545454545455 708.5714285714286,85.4545454545455 714.2857142857143,85.4545454545455 720.0,85.4545454545455 725.7142857142857,85.4545454545455 731.4285714285714,85.4545454545455 737.1428571428571,85.4545454545455 742.8571428571429,85.4545454545455 748.5714285714286,85.4545454545455 754.2857142857143,85.4545454545455 760.0,85.4545454545455" fill="none" stroke="#e74c3c" stroke-width="2.5"/>
      
      <!-- X轴标签 -->
      <text x="80.0" y="375" fill="#666" font-size="11" text-anchor="middle" font-family="sans-serif">12-07</text><text x="211.42857142857144" y="375" fill="#666" font-size="11" text-anchor="middle" font-family="sans-serif">01-17</text><text x="348.57142857142856" y="375" fill="#666" font-size="11" text-anchor="middle" font-family="sans-serif">02-10</text><text x="485.7142857142857" y="375" fill="#666" font-size="11" text-anchor="middle" font-family="sans-serif">04-20</text><text x="622.8571428571429" y="375" fill="#666" font-size="11" text-anchor="middle" font-family="sans-serif">05-14</text><text x="760.0" y="375" fill="#666" font-size="11" text-anchor="middle" font-family="sans-serif">06-07</text>
      <text x="400" y="395" fill="#666" font-size="12" text-anchor="middle" font-family="sans-serif">Date</text>
      
      <!-- 当前值标注 -->
      <circle cx="760.0" cy="85.4545454545455" r="4" fill="#e74c3c"/>
      <text x="768.0" y="77.4545454545455" fill="#e74c3c" font-size="12" font-weight="bold" font-family="sans-serif">117983</text>
    </svg>