<svg width="800" height="400" xmlns="http://www.w3.org/2000/svg">
      <defs>
        <linearGradient id="areaGrad" x1="0%" y1="0%" x2="0%" y2="100%">
          <stop offset="0%" style="stop-color:#e74c3c;stop-opacity:0.3"/>
          <stop offset="100%" style="stop-color:#e74c3c;stop-opacity:0.05"/>
        </linearGradient>
      </defs>
      <rect width="100%" height="100%" fill="#ffffff"/>
      
      <!-- 标题 -->
      <text x="400" y="30" fill="#333" font-size="16" font-weight="bold" text-anchor="middle" font-family="sans-serif">Code History</text>
      
      <!-- 图例 -->
      <rect x="80" y="45" width="12" height="12" fill="#e74c3c" rx="2"/>
      <text x="98" y="55" fill="#333" font-size="11" font-family="sans-serif">WyRainBow/Resume-Agent</text>
      
      <!-- Y轴标签 -->
      <text x="20" y="200" fill="#666" font-size="12" text-anchor="middle" font-family="sans-serif" transform="rotate(-90, 20, 200)">Lines of Code</text>
      
      <!-- 网格线和Y轴刻度 -->
      <text x="70" y="344.0" fill="#666" font-size="12" text-anchor="end" font-family="sans-serif">0</text><line x1="80" y1="340.0" x2="760" y2="340.0" stroke="#eee" stroke-width="1"/><text x="70" y="288.0" fill="#666" font-size="12" text-anchor="end" font-family="sans-serif">23.3k</text><line x1="80" y1="284.0" x2="760" y2="284.0" stroke="#eee" stroke-width="1"/><text x="70" y="232.0" fill="#666" font-size="12" text-anchor="end" font-family="sans-serif">46.6k</text><line x1="80" y1="228.0" x2="760" y2="228.0" stroke="#eee" stroke-width="1"/><text x="70" y="176.0" fill="#666" font-size="12" text-anchor="end" font-family="sans-serif">70.0k</text><line x1="80" y1="172.0" x2="760" y2="172.0" stroke="#eee" stroke-width="1"/><text x="70" y="120.0" fill="#666" font-size="12" text-anchor="end" font-family="sans-serif">93.3k</text><line x1="80" y1="116.0" x2="760" y2="116.0" stroke="#eee" stroke-width="1"/><text x="70" y="64.0" fill="#666" font-size="12" text-anchor="end" font-family="sans-serif">116.6k</text><line x1="80" y1="60.0" x2="760" y2="60.0" stroke="#eee" stroke-width="1"/>
      
      <!-- 坐标轴 -->
      <line x1="80" y1="60" x2="80" y2="340" stroke="#ccc" stroke-width="1"/>
      <line x1="80" y1="340" x2="760" y2="340" stroke="#ccc" stroke-width="1"/>
      
      <!-- 填充区域 -->
      <polygon points="80,340 80.0,322.48695767021064 87.47252747252747,321.9130351257407 94.94505494505495,313.83489521110863 102.41758241758242,311.18620664813625 109.8901098901099,311.18620664813625 117.36263736263737,311.6232522677745 124.83516483516485,305.24526784052637 132.30769230769232,300.05355009515347 139.7802197802198,300.05355009515347 147.25274725274727,300.05355009515347 154.72527472527474,297.42167097909027 162.19780219780222,298.11566100148286 169.6703296703297,294.79699591170237 177.14285714285714,292.3908436541336 184.61538461538464,292.3908436541336 192.0879120879121,288.22690351977815 199.5604395604396,287.8402862408674 207.03296703296704,287.8402862408674 214.5054945054945,287.8402862408674 221.97802197802199,287.8402862408674 229.45054945054946,270.65142610146904 236.92307692307693,271.6047618761744 244.3956043956044,266.4298535777107 251.86813186813185,266.4298535777107 259.3406593406594,261.8720921157691 266.8131868131868,170.05168904924568 274.2857142857143,170.07570254483022 281.75824175824175,169.85717973501107 289.2307692307693,169.82115949163432 296.7032967032967,169.82115949163432 304.1758241758242,169.82115949163432 311.64835164835165,169.82115949163432 319.1208791208792,169.82115949163432 326.5934065934066,166.25755674689177 334.0659340659341,164.98003878179537 341.53846153846155,164.98003878179537 349.010989010989,164.98003878179537 356.4835164835165,164.98003878179537 363.95604395604397,164.98003878179537 371.4285714285714,164.98003878179537 378.9010989010989,164.98003878179537 386.3736263736264,164.98003878179537 393.84615384615387,164.98003878179537 401.3186813186813,161.87029110360024 408.7912087912088,148.04091899647602 416.2637362637363,145.39703313262055 423.7362637362637,145.622759991115 431.20879120879124,145.44746147334806 438.6813186813187,144.19635835339463 446.15384615384613,143.0797308087145 453.62637362637366,140.75522443613312 461.0989010989011,114.5468953551896 468.57142857142856,85.54579673776664 476.0439560439561,85.5337899899744 483.5164835164835,96.26061846757878 490.989010989011,96.26061846757878 498.4615384615385,96.26061846757878 505.9340659340659,96.26061846757878 513.4065934065934,96.26061846757878 520.8791208791208,96.26061846757878 528.3516483516484,96.26061846757878 535.8241758241758,95.15359632113248 543.2967032967033,85.45454545454547 550.7692307692307,181.93836936358235 558.2417582417584,181.93836936358235 565.7142857142858,181.93836936358235 573.1868131868132,181.93836936358235 580.6593406593406,181.93836936358235 588.1318681318681,181.93836936358235 595.6043956043956,181.93836936358235 603.0769230769231,181.93836936358235 610.5494505494505,181.93836936358235 618.021978021978,181.93836936358235 625.4945054945056,181.93836936358235 632.967032967033,181.93836936358235 640.4395604395604,181.93836936358235 647.9120879120879,181.93836936358235 655.3846153846154,181.93836936358235 662.8571428571428,181.93836936358235 670.3296703296703,181.93836936358235 677.8021978021978,181.93836936358235 685.2747252747253,181.93836936358235 692.7472527472528,181.93836936358235 700.2197802197802,181.93836936358235 707.6923076923077,181.93836936358235 715.1648351648352,181.93836936358235 722.6373626373626,181.93836936358235 730.1098901098901,181.93836936358235 737.5824175824176,181.93836936358235 745.054945054945,181.93836936358235 752.5274725274726,181.93836936358235 760.0,97.70863225132527 760.0,340" fill="url(#areaGrad)"/>
      
      <!-- 折线 -->
      <polyline points="80.0,322.48695767021064 87.47252747252747,321.9130351257407 94.94505494505495,313.83489521110863 102.41758241758242,311.18620664813625 109.8901098901099,311.18620664813625 117.36263736263737,311.6232522677745 124.83516483516485,305.24526784052637 132.30769230769232,300.05355009515347 139.7802197802198,300.05355009515347 147.25274725274727,300.05355009515347 154.72527472527474,297.42167097909027 162.19780219780222,298.11566100148286 169.6703296703297,294.79699591170237 177.14285714285714,292.3908436541336 184.61538461538464,292.3908436541336 192.0879120879121,288.22690351977815 199.5604395604396,287.8402862408674 207.03296703296704,287.8402862408674 214.5054945054945,287.8402862408674 221.97802197802199,287.8402862408674 229.45054945054946,270.65142610146904 236.92307692307693,271.6047618761744 244.3956043956044,266.4298535777107 251.86813186813185,266.4298535777107 259.3406593406594,261.8720921157691 266.8131868131868,170.05168904924568 274.2857142857143,170.07570254483022 281.75824175824175,169.85717973501107 289.2307692307693,169.82115949163432 296.7032967032967,169.82115949163432 304.1758241758242,169.82115949163432 311.64835164835165,169.82115949163432 319.1208791208792,169.82115949163432 326.5934065934066,166.25755674689177 334.0659340659341,164.98003878179537 341.53846153846155,164.98003878179537 349.010989010989,164.98003878179537 356.4835164835165,164.98003878179537 363.95604395604397,164.98003878179537 371.4285714285714,164.98003878179537 378.9010989010989,164.98003878179537 386.3736263736264,164.98003878179537 393.84615384615387,164.98003878179537 401.3186813186813,161.87029110360024 408.7912087912088,148.04091899647602 416.2637362637363,145.39703313262055 423.7362637362637,145.622759991115 431.20879120879124,145.44746147334806 438.6813186813187,144.19635835339463 446.15384615384613,143.0797308087145 453.62637362637366,140.75522443613312 461.0989010989011,114.5468953551896 468.57142857142856,85.54579673776664 476.0439560439561,85.5337899899744 483.5164835164835,96.26061846757878 490.989010989011,96.26061846757878 498.4615384615385,96.26061846757878 505.9340659340659,96.26061846757878 513.4065934065934,96.26061846757878 520.8791208791208,96.26061846757878 528.3516483516484,96.26061846757878 535.8241758241758,95.15359632113248 543.2967032967033,85.45454545454547 550.7692307692307,181.93836936358235 558.2417582417584,181.93836936358235 565.7142857142858,181.93836936358235 573.1868131868132,181.93836936358235 580.6593406593406,181.93836936358235 588.1318681318681,181.93836936358235 595.6043956043956,181.93836936358235 603.0769230769231,181.93836936358235 610.5494505494505,181.93836936358235 618.021978021978,181.93836936358235 625.4945054945056,181.93836936358235 632.967032967033,181.93836936358235 640.4395604395604,181.93836936358235 647.9120879120879,181.93836936358235 655.3846153846154,181.93836936358235 662.8571428571428,181.93836936358235 670.3296703296703,181.93836936358235 677.8021978021978,181.93836936358235 685.2747252747253,181.93836936358235 692.7472527472528,181.93836936358235 700.2197802197802,181.93836936358235 707.6923076923077,181.93836936358235 715.1648351648352,181.93836936358235 722.6373626373626,181.93836936358235 730.1098901098901,181.93836936358235 737.5824175824176,181.93836936358235 745.054945054945,181.93836936358235 752.5274725274726,181.93836936358235 760.0,97.70863225132527" fill="none" stroke="#e74c3c" stroke-width="2.5"/>
      
      <!-- X轴标签 -->
      <text x="80.0" y="375" fill="#666" font-size="11" text-anchor="middle" font-family="sans-serif">12-07</text><text x="214.5054945054945" y="375" fill="#666" font-size="11" text-anchor="middle" font-family="sans-serif">12-25</text><text x="349.010989010989" y="375" fill="#666" font-size="11" text-anchor="middle" font-family="sans-serif">01-30</text><text x="483.5164835164835" y="375" fill="#666" font-size="11" text-anchor="middle" font-family="sans-serif">02-17</text><text x="618.021978021978" y="375" fill="#666" font-size="11" text-anchor="middle" font-family="sans-serif">03-07</text><text x="760.0" y="375" fill="#666" font-size="11" text-anchor="middle" font-family="sans-serif">03-26</text>
      <text x="400" y="395" fill="#666" font-size="12" text-anchor="middle" font-family="sans-serif">Date</text>
      
      <!-- 当前值标注 -->
      <circle cx="760.0" cy="97.70863225132527" r="4" fill="#e74c3c"/>
      <text x="768.0" y="89.70863225132527" fill="#e74c3c" font-size="12" font-weight="bold" font-family="sans-serif">100898</text>
    </svg>