<svg width="800" height="400" xmlns="http://www.w3.org/2000/svg">
      <defs>
        <linearGradient id="areaGrad" x1="0%" y1="0%" x2="0%" y2="100%">
          <stop offset="0%" style="stop-color:#e74c3c;stop-opacity:0.3"/>
          <stop offset="100%" style="stop-color:#e74c3c;stop-opacity:0.05"/>
        </linearGradient>
      </defs>
      <rect width="100%" height="100%" fill="#ffffff"/>
      
      <!-- 标题 -->
      <text x="400" y="30" fill="#333" font-size="16" font-weight="bold" text-anchor="middle" font-family="sans-serif">Code History</text>
      
      <!-- 图例 -->
      <rect x="80" y="45" width="12" height="12" fill="#e74c3c" rx="2"/>
      <text x="98" y="55" fill="#333" font-size="11" font-family="sans-serif">WyRainBow/Resume-Agent</text>
      
      <!-- Y轴标签 -->
      <text x="20" y="200" fill="#666" font-size="12" text-anchor="middle" font-family="sans-serif" transform="rotate(-90, 20, 200)">Lines of Code</text>
      
      <!-- 网格线和Y轴刻度 -->
      <text x="70" y="344.0" fill="#666" font-size="12" text-anchor="end" font-family="sans-serif">0</text><line x1="80" y1="340.0" x2="760" y2="340.0" stroke="#eee" stroke-width="1"/><text x="70" y="288.0" fill="#666" font-size="12" text-anchor="end" font-family="sans-serif">33.2k</text><line x1="80" y1="284.0" x2="760" y2="284.0" stroke="#eee" stroke-width="1"/><text x="70" y="232.0" fill="#666" font-size="12" text-anchor="end" font-family="sans-serif">66.3k</text><line x1="80" y1="228.0" x2="760" y2="228.0" stroke="#eee" stroke-width="1"/><text x="70" y="176.0" fill="#666" font-size="12" text-anchor="end" font-family="sans-serif">99.5k</text><line x1="80" y1="172.0" x2="760" y2="172.0" stroke="#eee" stroke-width="1"/><text x="70" y="120.0" fill="#666" font-size="12" text-anchor="end" font-family="sans-serif">132.7k</text><line x1="80" y1="116.0" x2="760" y2="116.0" stroke="#eee" stroke-width="1"/><text x="70" y="64.0" fill="#666" font-size="12" text-anchor="end" font-family="sans-serif">165.9k</text><line x1="80" y1="60.0" x2="760" y2="60.0" stroke="#eee" stroke-width="1"/>
      
      <!-- 坐标轴 -->
      <line x1="80" y1="60" x2="80" y2="340" stroke="#ccc" stroke-width="1"/>
      <line x1="80" y1="340" x2="760" y2="340" stroke="#ccc" stroke-width="1"/>
      
      <!-- 填充区域 -->
      <polygon points="80,340 80.0,327.68794062833683 90.96774193548387,327.2844602787101 101.93548387096774,321.60534774254194 112.90322580645162,319.7432606059802 123.87096774193549,319.7432606059802 134.83870967741936,320.0505134245244 145.80645161290323,315.566648116539 156.77419354838707,311.91675474460214 167.74193548387098,311.91675474460214 178.70967741935485,311.91675474460214 189.67741935483872,310.0664850241383 200.6451612903226,310.55437548874966 211.61290322580643,308.2212799105735 222.58064516129033,306.52970120628083 233.54838709677418,306.52970120628083 244.51612903225808,303.60235841861265 255.48387096774192,303.33055784836205 266.4516129032258,303.33055784836205 277.4193548387097,303.33055784836205 288.38709677419354,303.33055784836205 299.35483870967744,291.24640578715747 310.3225806451613,291.9166221001357 321.2903225806452,288.2785461442967 332.258064516129,288.2785461442967 343.22580645161287,285.07433817947884 354.19354838709677,220.5225468461065 365.16129032258067,220.53942886910346 376.1290322580645,220.38580245983132 387.09677419354836,220.36047942533594 398.06451612903226,220.36047942533594 409.03225806451616,220.36047942533594 420.0,220.36047942533594 430.96774193548384,220.36047942533594 441.93548387096774,217.8551872125911 452.9032258064516,216.95706358915427 463.87096774193554,216.95706358915427 474.8387096774194,216.95706358915427 485.80645161290323,216.95706358915427 496.77419354838713,216.95706358915427 507.741935483871,216.95706358915427 518.7096774193549,216.95706358915427 529.6774193548387,216.95706358915427 540.6451612903226,216.95706358915427 551.6129032258065,214.77084161105148 562.5806451612904,205.0484845671178 573.5483870967741,203.1897738351555 584.516129032258,203.3484648513267 595.483870967742,203.22522608344906 606.4516129032257,202.34567268530887 617.4193548387096,201.5606586159515 628.3870967741935,199.92647878984837 639.3548387096774,181.50143889099581 650.3225806451613,102.77381284709895 661.2903225806451,102.77381284709895 672.258064516129,93.92763279670612 683.2258064516129,91.34974788507444 694.1935483870967,106.93016690894382 705.1612903225806,106.93016690894382 716.1290322580645,106.93016690894382 727.0967741935484,106.93016690894382 738.0645161290323,106.92510230204476 749.0322580645161,85.4545454545455 760.0,85.4545454545455 760.0,340" fill="url(#areaGrad)"/>
      
      <!-- 折线 -->
      <polyline points="80.0,327.68794062833683 90.96774193548387,327.2844602787101 101.93548387096774,321.60534774254194 112.90322580645162,319.7432606059802 123.87096774193549,319.7432606059802 134.83870967741936,320.0505134245244 145.80645161290323,315.566648116539 156.77419354838707,311.91675474460214 167.74193548387098,311.91675474460214 178.70967741935485,311.91675474460214 189.67741935483872,310.0664850241383 200.6451612903226,310.55437548874966 211.61290322580643,308.2212799105735 222.58064516129033,306.52970120628083 233.54838709677418,306.52970120628083 244.51612903225808,303.60235841861265 255.48387096774192,303.33055784836205 266.4516129032258,303.33055784836205 277.4193548387097,303.33055784836205 288.38709677419354,303.33055784836205 299.35483870967744,291.24640578715747 310.3225806451613,291.9166221001357 321.2903225806452,288.2785461442967 332.258064516129,288.2785461442967 343.22580645161287,285.07433817947884 354.19354838709677,220.5225468461065 365.16129032258067,220.53942886910346 376.1290322580645,220.38580245983132 387.09677419354836,220.36047942533594 398.06451612903226,220.36047942533594 409.03225806451616,220.36047942533594 420.0,220.36047942533594 430.96774193548384,220.36047942533594 441.93548387096774,217.8551872125911 452.9032258064516,216.95706358915427 463.87096774193554,216.95706358915427 474.8387096774194,216.95706358915427 485.80645161290323,216.95706358915427 496.77419354838713,216.95706358915427 507.741935483871,216.95706358915427 518.7096774193549,216.95706358915427 529.6774193548387,216.95706358915427 540.6451612903226,216.95706358915427 551.6129032258065,214.77084161105148 562.5806451612904,205.0484845671178 573.5483870967741,203.1897738351555 584.516129032258,203.3484648513267 595.483870967742,203.22522608344906 606.4516129032257,202.34567268530887 617.4193548387096,201.5606586159515 628.3870967741935,199.92647878984837 639.3548387096774,181.50143889099581 650.3225806451613,102.77381284709895 661.2903225806451,102.77381284709895 672.258064516129,93.92763279670612 683.2258064516129,91.34974788507444 694.1935483870967,106.93016690894382 705.1612903225806,106.93016690894382 716.1290322580645,106.93016690894382 727.0967741935484,106.93016690894382 738.0645161290323,106.92510230204476 749.0322580645161,85.4545454545455 760.0,85.4545454545455" fill="none" stroke="#e74c3c" stroke-width="2.5"/>
      
      <!-- X轴标签 -->
      <text x="80.0" y="375" fill="#666" font-size="11" text-anchor="middle" font-family="sans-serif">12-07</text><text x="211.61290322580643" y="375" fill="#666" font-size="11" text-anchor="middle" font-family="sans-serif">12-19</text><text x="343.22580645161287" y="375" fill="#666" font-size="11" text-anchor="middle" font-family="sans-serif">01-18</text><text x="485.80645161290323" y="375" fill="#666" font-size="11" text-anchor="middle" font-family="sans-serif">01-31</text><text x="617.4193548387096" y="375" fill="#666" font-size="11" text-anchor="middle" font-family="sans-serif">02-12</text><text x="760.0" y="375" fill="#666" font-size="11" text-anchor="middle" font-family="sans-serif">07-18</text>
      <text x="400" y="395" fill="#666" font-size="12" text-anchor="middle" font-family="sans-serif">Date</text>
      
      <!-- 当前值标注 -->
      <circle cx="760.0" cy="85.4545454545455" r="4" fill="#e74c3c"/>
      <text x="768.0" y="77.4545454545455" fill="#e74c3c" font-size="12" font-weight="bold" font-family="sans-serif">150779</text>
    </svg>